<?xml version="1.0" encoding="UTF-8" standalone="no"?>
<!-- Created with Inkscape (http://www.inkscape.org/) -->

<svg
   version="1.1"
   id="svg1"
   width="1940.1639"
   height="1941.0149"
   viewBox="0 0 1940.1639 1941.0149"
   xmlns="http://www.w3.org/2000/svg"
   xmlns:svg="http://www.w3.org/2000/svg">
  <defs
     id="defs1" />
  <g
     id="g1"
     transform="translate(-0.1991059,1576.0291)">
    <path
       style="fill:#000000;fill-opacity:1;stroke-width:5.32858"
       d="m 907.98413,364.64253 c -4.22025,-0.35809 -19.18295,-1.83034 -33.25047,-3.27199 -14.06749,-1.44165 -33.63412,-3.78968 -43.48136,-5.21787 -9.84726,-1.42822 -29.79753,-4.89778 -44.33396,-7.71016 -14.53642,-2.81237 -40.24159,-8.59893 -57.12258,-12.85903 -16.88102,-4.2601 -45.28501,-12.5667 -63.11998,-18.45903 -17.83499,-5.89235 -44.30746,-15.4824 -58.82774,-21.31123 -14.52028,-5.82885 -41.81193,-18.08186 -60.6481,-27.22893 -18.83622,-9.14715 -45.30869,-22.9603 -58.82777,-30.69599 -13.51907,-7.7357 -37.62451,-22.70773 -53.56769,-33.2712 -15.94316,-10.56347 -37.4281,-25.55282 -47.74426,-33.3096 -10.31618,-7.75686 -27.36263,-21.29401 -37.88098,-30.08257 -10.51838,-8.78862 -28.5868,-24.69838 -40.15201,-35.35509 C 297.462,95.213166 278.30888,76.228398 266.46467,63.681509 254.62048,51.134619 236.30193,30.531747 225.75678,17.897418 215.21164,5.2630547 200.29001,-13.537593 192.59764,-23.881716 184.90526,-34.225873 172.17438,-52.279421 164.30681,-64.000755 156.43924,-75.722072 144.8506,-93.90348 138.55428,-104.4038 c -6.29631,-10.50032 -17.11324,-29.68329 -24.0376,-42.6288 -6.92436,-12.9455 -17.388802,-33.89608 -23.254301,-46.55682 -5.865501,-12.66076 -14.128965,-31.46005 -18.363256,-41.77624 -4.234287,-10.31616 -11.390053,-28.95513 -15.901703,-41.41993 -4.511646,-12.46483 -11.665571,-34.3334 -15.897609,-48.59684 -4.232038,-14.26344 -9.993246,-35.14137 -12.802691,-46.39538 -2.809441,-11.254 -7.037869,-30.0533 -9.396503,-41.77622 -2.358634,-11.72292 -5.823177,-31.28953 -7.698985,-43.48138 -1.8758064,-12.19183 -4.6177247,-33.67674 -6.0931517,-47.74424 -1.4754265,-14.0675 -3.3755505,-42.45829 -4.22249759,-63.09063 -0.93806194,-22.85196 -0.91353403,-52.37533 0.0627582,-75.53999 0.88146409,-20.91465 2.78970939,-48.92177 4.24054479,-62.23805 1.450836,-13.31627 4.1645126,-34.18654 6.0303943,-46.37837 1.865881,-12.19183 5.31662,-31.75846 7.668309,-43.48137 2.351689,-11.72292 7.785866,-35.12613 12.07595,-52.00715 4.290081,-16.88099 12.226619,-44.1208 17.636748,-60.53289 5.410131,-16.41209 14.447848,-41.34994 20.083821,-55.41742 5.635969,-14.06751 14.595549,-35.16875 19.910177,-46.89168 5.314621,-11.7229 15.098965,-31.6732 21.742985,-44.334 6.64403,-12.6607 18.98292,-34.5293 27.41977,-48.5968 8.43685,-14.0675 19.96747,-32.4831 25.6236,-40.9236 5.65614,-8.4405 15.29596,-22.2523 21.42184,-30.6928 6.12589,-8.4405 18.35875,-24.4683 27.18415,-35.6173 8.8254,-11.149 25.08418,-30.3319 36.13062,-42.6288 11.04643,-12.2968 30.33017,-32.4047 42.85273,-44.6841 12.52255,-12.2795 29.67417,-28.4048 38.11466,-35.8341 8.44052,-7.4293 23.01958,-19.6932 32.39791,-27.2532 9.37833,-7.5599 24.72469,-19.3997 34.10303,-26.3106 9.37833,-6.9109 28.94497,-20.3772 43.48139,-29.9252 14.5364,-9.548 38.32326,-24.1176 52.8597,-32.3768 14.53642,-8.2593 38.70695,-20.9527 53.71229,-28.2076 15.00532,-7.255 39.55952,-18.3005 54.56484,-24.5456 15.00533,-6.2452 43.01246,-16.6335 62.23805,-23.0853 19.22559,-6.4517 48.3837,-15.1483 64.79579,-19.3257 16.41209,-4.1775 37.51334,-9.1584 46.89167,-11.0687 9.37833,-1.9104 26.03916,-5.0253 37.02407,-6.9221 10.98492,-1.8968 33.62081,-4.9905 50.30198,-6.8751 16.68119,-1.8845 46.44313,-4.2913 66.13762,-5.3483 20.18927,-1.0836 49.5677,-1.434 67.35349,-0.8033 17.34993,0.6153 44.20613,2.2034 59.68033,3.5291 15.4743,1.3256 39.6448,4.0238 53.7123,5.9959 14.0675,1.9721 37.087,5.865 51.1546,8.6509 14.0674,2.7858 37.8543,8.1796 52.8596,11.986 15.0054,3.8065 43.0125,12.1161 62.2381,18.4659 19.2256,6.3497 44.5471,15.3967 56.27,20.1043 11.7229,4.7076 29.2518,12.1312 38.953,16.497 9.7012,4.3657 26.9659,12.6073 38.3659,18.3147 11.4001,5.7073 29.5515,15.3722 40.3366,21.4776 10.7851,6.1054 28.8171,16.8527 40.0711,23.8829 11.254,7.0302 31.8029,20.8552 45.6642,30.7222 13.8613,9.8669 33.8116,24.8615 44.334,33.3213 10.5223,8.4597 28.3393,23.5947 39.5933,33.6332 11.254,10.0385 33.1282,31.1988 48.6093,47.0228 15.4811,15.8241 36.4787,38.7462 46.6614,50.938 10.1827,12.1919 26.0091,32.1421 35.1697,44.334 9.1607,12.1918 24.7111,34.4441 34.5564,49.4494 9.8453,15.0053 23.8128,37.6412 31.0385,50.302 7.226,12.6607 19.9091,36.8312 28.1848,53.7122 8.2758,16.881 18.8667,39.9006 23.5355,51.15458 4.6688,11.25402 12.3333,30.82063 17.0324,43.48139 4.6989,12.66077 12.0878,34.69137 16.4195,48.95701 4.3318,14.26554 11.3452,40.16165 15.5851,57.54689 4.2402,17.3852 9.9409,44.84806 12.6684,61.02857 2.7274,16.1805 6.6835,43.61304 8.7912,60.96115 3.3842,27.85381 3.8433,39.81652 3.927,102.30586 0.064,46.95119 -0.6562,77.93625 -2.1365,92.0782 -1.227,11.72292 -3.7644,32.44053 -5.6386,46.03912 -1.8744,13.59857 -5.7112,36.61813 -8.5264,51.15455 -2.8153,14.53642 -8.2244,38.70695 -12.0206,53.71228 -3.7962,15.00534 -11.9061,42.6288 -18.0224,61.38547 -6.1161,18.75667 -15.9079,45.99647 -21.7596,60.53291 -5.8516,14.53641 -15.7126,37.34676 -21.9134,50.68962 -6.2006,13.34287 -16.7663,34.44412 -23.4792,46.89168 -6.7131,12.44756 -16.804,30.30507 -22.4245,39.68341 -5.6205,9.378332 -16.7608,26.922543 -24.7562,38.987079 -7.9955,12.064552 -22.3918,32.39848 -31.9917,45.186538 -9.6,12.788024 -22.583,29.3895186 -28.8511,36.892176 -6.2681,7.502675 -19.4609,22.623841 -29.3174,33.602636 -9.8565,10.97871 -28.0431,29.778032 -40.4147,41.776209 -12.3716,11.998142 -30.5298,28.797402 -40.3516,37.331642 -9.8218,8.53428 -28.6184,23.90463 -41.7704,34.15633 -13.1519,10.25176 -36.5551,27.13834 -52.0071,37.52581 -15.452,10.38747 -39.6043,25.64191 -53.6718,33.89881 -14.0675,8.25691 -42.4582,23.26674 -63.0906,33.3552 -20.6323,10.08848 -51.0047,23.70339 -67.4943,30.25531 -16.4895,6.55196 -41.925,15.7799 -56.5234,20.50665 -14.5983,4.72666 -37.9383,11.64911 -51.8664,15.38318 -13.9281,3.73403 -34.148,8.73662 -44.9331,11.11686 -10.785,2.38026 -31.119,6.24899 -45.1865,8.59721 -14.0675,2.34819 -39.389,5.92085 -56.27,7.93922 -25.4221,3.03966 -41.8197,3.74603 -95.4885,4.1132 -35.63768,0.24403 -68.24871,0.15041 -72.46897,-0.20732 z m 44.33394,-23.43749 v -10.85413 l -24.82743,-1.22973 c -13.65511,-0.67635 -30.55995,-1.7773 -37.56629,-2.44657 -11.97171,-1.14354 -12.78059,-1.00627 -13.43111,2.2793 -0.38048,1.92281 -1.12758,6.72176 -1.65975,10.66428 -0.94644,7.01168 -0.84642,7.1894 4.58179,8.14013 3.0521,0.53462 14.37348,1.61286 25.15857,2.39617 10.78507,0.78324 25.9396,1.53225 33.67674,1.66445 l 14.06748,0.24042 z m 96.10493,8.05244 13.405,-1.14112 -1.1744,-10.38055 c -0.6459,-5.70932 -1.4053,-10.61147 -1.6875,-10.89367 -0.2825,-0.28243 -17.104,0.44118 -37.3817,1.6074 l -36.86841,2.12058 v 11.01075 11.01082 l 25.15101,-1.09658 c 13.833,-0.60311 31.1832,-1.61003 38.556,-2.23763 z M 866.22005,336.60823 c 0.65981,-5.68455 0.84832,-10.68683 0.41884,-11.11616 -0.42949,-0.42949 -13.74642,-2.68775 -29.59343,-5.01868 -15.84705,-2.3309 -35.16227,-5.49426 -42.92274,-7.02969 -7.76048,-1.53544 -14.46907,-2.43253 -14.90803,-1.99354 -0.43909,0.43905 -1.57859,4.91365 -2.53259,9.94384 -0.9539,5.03015 -1.15117,9.69732 -0.43854,10.37138 0.71287,0.67408 15.4915,3.5886 32.84146,6.4767 17.34992,2.88812 36.53286,5.93276 42.6288,6.76594 6.09589,0.83311 11.58361,1.6095 12.19491,1.7253 0.61128,0.11564 1.65123,-4.44056 2.31101,-10.12509 z m 251.49775,4.14523 c 15.4743,-2.35951 31.7798,-5.06483 36.2345,-6.0118 5.2215,-1.10994 8.0995,-2.61499 8.0995,-4.23564 0,-1.38265 -0.8805,-6.11485 -1.9568,-10.51594 -1.0761,-4.40106 -2.1323,-8.22687 -2.347,-8.50172 -0.2147,-0.27497 -11.0358,1.42834 -24.0468,3.78494 -13.0111,2.35665 -32.8644,5.52645 -44.1184,7.04405 -11.254,1.51764 -20.5975,2.89151 -20.7635,3.05312 -0.1657,0.16142 0.1391,5.15594 0.6781,11.09856 l 0.9798,10.80477 9.5528,-1.11513 c 5.254,-0.61332 22.2136,-3.04567 37.6878,-5.40521 z m 116.997,-25.58326 27.4765,-7.78816 -3.2378,-10.4033 c -1.7809,-5.72174 -3.5221,-10.68748 -3.8695,-11.03483 -0.3474,-0.34743 -8.4427,1.77884 -17.9896,4.72492 -9.547,2.94606 -28.9944,8.25505 -43.2163,11.79771 -24.8851,6.19882 -25.8478,6.60029 -25.5782,10.66665 0.154,2.32397 1.1134,7.31988 2.1318,11.10213 l 1.8517,6.87671 17.4775,-4.07685 c 9.6125,-2.24228 29.8418,-7.58151 44.9539,-11.86498 z m -467.54213,7.47514 c 0.63364,-3.9858 1.54686,-8.83244 2.02935,-10.77029 0.79329,-3.18603 -0.47957,-3.81394 -13.29645,-6.55829 -7.79558,-1.66916 -26.06718,-6.43337 -40.6036,-10.58712 -14.53642,-4.15369 -27.63044,-7.92309 -29.09789,-8.37639 -1.99567,-0.61647 -3.42949,1.59148 -5.68973,8.76183 -1.66194,5.27225 -2.37962,10.20424 -1.59484,10.9599 0.78476,0.75568 15.23857,5.21131 32.11959,9.90145 16.88099,4.69007 35.29662,9.66366 40.92362,11.05235 5.62702,1.38874 11.09203,2.60112 12.14442,2.69419 1.05246,0.0931 2.43192,-3.09186 3.06553,-7.07763 z m 285.91593,-10.57261 c 14.628,-1.42641 37.2639,-4.1582 50.302,-6.0707 13.0381,-1.91243 34.8317,-5.72 48.4303,-8.46117 13.5986,-2.74124 35.0835,-7.6683 47.7442,-10.94904 12.6608,-3.28077 32.6111,-8.99077 44.334,-12.68885 11.7229,-3.69805 29.964,-9.83819 40.5357,-13.64468 10.5717,-3.80648 30.522,-11.69591 44.3339,-17.53194 13.812,-5.83606 39.6917,-18.00245 57.5106,-27.03646 17.8188,-9.03398 42.373,-22.4363 54.5648,-29.78289 12.1919,-7.34665 33.2931,-20.90164 46.8917,-30.1223 13.5986,-9.22066 33.1652,-23.32277 43.4814,-31.33798 10.3162,-8.01522 27.5808,-22.11571 38.3659,-31.33446 10.7851,-9.218733 27.6078,-24.361118 37.3838,-33.64972 9.776,-9.288602 27.3276,-27.247225 39.0034,-39.907987 11.6759,-12.6607283 30.7258,-34.91299 42.3332,-49.449408 11.6073,-14.536401 28.3509,-36.788629 37.2079,-49.449391 8.857,-12.660745 24.1573,-36.447634 34.0007,-52.859704 9.8435,-16.41209 23.9202,-41.73359 31.2815,-56.27003 7.3614,-14.53642 17.0954,-34.87035 21.6312,-45.18651 4.536,-10.31618 12.7974,-30.62117 18.3589,-45.12228 5.5614,-14.50108 13.4852,-37.23166 17.6085,-50.5124 4.1231,-13.28074 9.8612,-33.25318 12.7511,-44.38324 2.8897,-11.13006 7.8513,-32.90394 11.0254,-48.3864 3.1742,-15.48251 7.0586,-36.97415 8.6322,-47.75922 1.5736,-10.78509 3.9819,-28.81708 5.3517,-40.07108 1.463,-12.01797 2.891,-44.49408 3.4608,-78.69862 0.6357,-38.16285 0.276,-66.96302 -1.0436,-83.55245 -1.1076,-13.92364 -3.4795,-36.82542 -5.271,-50.89293 -1.7913,-14.0675 -5.224,-36.31973 -7.6277,-49.44941 -2.404,-13.12966 -7.8581,-38.0675 -12.1203,-55.41744 -4.2623,-17.34992 -13.3833,-48.42631 -20.2688,-69.05866 -6.8858,-20.63232 -16.7573,-47.48845 -21.9367,-59.68029 -5.1794,-12.19184 -10.0408,-22.015 -10.8028,-21.82932 -0.762,0.18553 -14.0463,6.32485 -29.5205,13.64256 -15.4743,7.3177 -35.7349,17.52452 -45.0236,22.68185 -9.2886,5.15737 -19.998,11.1237 -23.7988,13.25849 -3.8007,2.13477 -10.3963,5.8956 -14.6569,8.35737 -4.2605,2.46181 -14.6523,9.08846 -23.0928,14.72596 -8.4405,5.6375 -19.0866,13.38647 -23.658,17.2199 -4.5714,3.83338 -17.2322,16.59518 -28.135,28.35945 -10.9029,11.76427 -28.8847,31.90637 -39.9597,44.76023 -20.1363,23.37067 -20.1363,23.37067 -29.4138,23.37067 -5.1027,0 -9.2695,0.57549 -9.2595,1.27886 0.01,0.70337 2.6946,10.81801 5.9662,22.477 3.2715,11.65896 8.2165,32.76021 10.9888,46.89166 2.7724,14.13146 6.2713,37.20334 7.7752,51.27084 1.6353,15.29612 2.7465,40.65631 2.7644,63.09061 0.016,20.63235 -0.8546,46.3375 -1.9357,57.12259 -1.0812,10.78509 -3.8214,30.65666 -6.0893,44.15912 -2.268,13.50241 -6.7751,34.98732 -10.0158,47.74426 -3.2407,12.75688 -9.4449,33.55318 -13.7872,46.21393 -4.3422,12.66076 -10.5906,29.54176 -13.8853,37.51335 -3.2947,7.97158 -11.1547,24.85259 -17.4666,37.51334 -6.3119,12.66075 -16.7878,31.84371 -23.2797,42.62879 -6.492,10.78509 -17.9451,28.1844 -25.4515,38.66519 -7.5063,10.48072 -20.3056,27.051 -28.4429,36.8228 -8.1372,9.77179 -24.178,27.14991 -35.6461,38.61803 -11.4681,11.46808 -28.8462,27.50883 -38.618,35.64607 -9.7718,8.13732 -26.7258,21.21364 -37.6754,29.05847 -10.9497,7.84487 -29.5,19.998273 -41.2229,27.007578 -11.7229,7.009272 -31.2895,17.587095 -43.4814,23.506255 -12.1918,5.919127 -32.9142,15.002751 -46.0497,20.185826 -13.1356,5.183059 -35.7714,12.863159 -50.302,17.066967 -14.5306,4.203722 -36.0107,9.578094 -47.7336,11.942919 -11.7229,2.364893 -29.8286,5.483563 -40.2348,6.9304025 -10.4061,1.4468046 -33.0903,3.4634719 -50.40905,4.4813909 -22.63176,1.3302818 -40.33149,1.3309185 -62.92693,0.00172 -17.29098,-1.0166629 -42.18066,-3.3990754 -55.31035,-5.2941775 -13.12966,-1.8951369 -34.23091,-5.8020529 -46.89167,-8.6820149 -12.66075,-2.879997 -31.84371,-7.906074 -42.6288,-11.169008 -10.78509,-3.262951 -31.50268,-10.588716 -46.0391,-16.279409 -14.53642,-5.690709 -37.93964,-16.211777 -52.00713,-23.38013 -14.06752,-7.168353 -32.48315,-17.332245 -40.92365,-22.586444 -8.44052,-5.2542 -23.92425,-15.569055 -34.40832,-22.921935 -10.48408,-7.35288 -27.36507,-20.26834 -37.51335,-28.70105 -10.14827,-8.43274 -27.90897,-24.71561 -39.46824,-36.18413 l -21.01686,-20.85126 -69.24698,61.76141 c -38.08585,33.96877 -87.76612,78.258767 -110.40061,98.422186 -22.63449,20.16342 -44.72033,39.34636798 -49.07962,42.6288 -4.35927,3.2823975 -7.9497,6.6905937 -7.9787,7.573679 -0.0287,0.88312 15.48549,17.039157 34.47661,35.902291 18.99113,18.86315 43.82848,42.074425 55.19413,51.580602 11.36562,9.506162 30.54857,24.723352 42.62877,33.815962 12.08023,9.09262 32.73158,23.63527 45.8919,32.31701 13.16033,8.68172 34.97548,22.12349 48.47811,29.87058 13.5026,7.74713 39.18268,21.17694 57.06684,29.84395 17.88412,8.66702 44.02638,20.36376 58.0939,25.9928 14.06749,5.62898 36.16332,13.79202 49.10187,18.14011 12.93857,4.34803 35.95812,11.35397 51.15454,15.56865 15.19649,4.21477 42.59268,10.67561 60.88043,14.35744 18.28776,3.68191 44.76025,8.21305 58.82777,10.06925 14.06749,1.85622 36.31971,4.21174 49.44939,5.23444 13.12968,1.02279 28.09236,2.14081 33.25047,2.48458 5.15809,0.34369 29.3286,0.35222 53.71228,0.0155 24.38365,-0.33356 56.30235,-1.77362 70.93035,-3.20003 z m -20.6284,-72.56214 c -16.412,-0.57687 -30.032,-1.19457 -30.2664,-1.3727 -0.2345,-0.17808 -0.4263,-1.85852 -0.4263,-3.73419 0,-2.50086 1.1367,-3.4103 4.2629,-3.4103 2.3446,0 4.2423,-0.57549 4.2171,-1.27886 -0.027,-0.70337 -6.4364,-32.73891 -14.24721,-71.19008 -13.29858,-65.466391 -14.3196,-69.477595 -16.05847,-63.090639 -1.02135,3.751329 -8.81324,34.055989 -17.31533,67.343579 -8.50206,33.28768 -15.88594,61.87028 -16.40858,63.51692 -0.74218,2.33847 0.032,2.99395 3.54612,2.99395 3.68761,0 4.3984,0.69009 3.95153,3.83657 -0.45611,3.21043 -1.51891,3.79072 -6.51291,3.55542 -3.28244,-0.15454 -22.84904,-0.35169 -43.48139,-0.43749 -20.63235,-0.0857 -38.5843,-0.84124 -39.89326,-1.67813 -1.30891,-0.83692 -1.90849,-2.7501 -1.33236,-4.25148 0.62482,-1.62838 3.02846,-2.72983 5.95683,-2.72983 h 4.90936 l 1.13567,-44.76025 c 0.62462,-24.61814 1.62634,-60.29845 2.22603,-79.28957 l 1.09033,-34.529326 h -5.49526 c -4.72349,0 -5.41877,-0.538817 -4.95044,-3.836582 0.54341,-3.825896 0.63176,-3.836118 31.74129,-3.673922 20.41485,0.106524 31.85189,0.818052 33.09296,2.059139 1.39194,1.391925 1.31579,2.596305 -0.28615,4.52653 -1.20048,1.446495 -3.90606,2.629983 -6.01237,2.629983 -3.82961,0 -3.82961,0 -4.92122,40.497348 -0.60032,22.27355 -1.56607,57.45399 -2.14605,78.17878 l -1.05452,37.68142 6.45037,1.04675 c 3.54775,0.5757 7.64174,0.37991 9.09789,-0.43482 1.78887,-1.00113 9.35691,-27.43599 23.33453,-81.50638 11.37784,-44.01358 21.24401,-80.926079 21.92491,-82.027721 0.90143,-1.458575 7.11592,-1.706628 22.865,-0.912685 11.8949,0.599634 22.2623,1.666255 23.0386,2.370263 0.7764,0.704076 8.4857,38.396953 17.1319,83.762023 15.7204,82.48194 15.7204,82.48194 21.2852,83.02398 4.6102,0.44919 5.4739,1.17734 5.0351,4.24549 -0.2915,2.03685 -1.6807,3.75346 -3.0875,3.81469 -1.4067,0.0613 -15.9858,-0.36076 -32.3979,-0.93762 z M 614.51535,168.32908 c -15.58216,-9.74442 -21.2748,-14.22247 -21.67667,-17.05153 -0.45344,-3.19337 0.26111,-3.84309 4.26291,-3.87544 4.73865,-0.0372 5.15664,-0.93714 29.08455,-62.543892 13.35219,-34.377786 24.06438,-62.717428 23.80478,-62.976976 -0.25953,-0.259496 -20.91509,21.938437 -45.90114,49.328996 -28.35925,31.088212 -44.83222,50.409552 -43.84036,51.420762 0.87388,0.89095 1.58888,3.02514 1.58888,4.74273 0,1.7175 -1.07958,3.53699 -2.39905,4.04338 -1.31951,0.50621 -5.7316,-1.16707 -9.80462,-3.71866 -4.07307,-2.55165 -7.66136,-5.29194 -7.974,-6.08965 -0.31279,-0.79761 -1.46353,-1.47623 -2.55772,-1.50797 -1.09412,-0.032 -11.19649,-5.64596 -22.4497,-12.47612 -12.05851,-7.31894 -20.70492,-13.688219 -21.05588,-15.510647 -0.32754,-1.700691 0.39777,-3.706103 1.61184,-4.456438 1.21403,-0.750249 3.57025,-0.634775 5.23604,0.256863 2.46235,1.317805 3.80836,0.418801 7.19802,-4.808175 2.29313,-3.535939 21.07179,-33.579765 41.73033,-66.763979 36.70921,-58.966565 37.48345,-60.39776 34.13949,-63.105546 -2.21889,-1.796752 -3.02111,-3.814279 -2.28225,-5.739704 0.62665,-1.63299 2.16719,-2.969106 3.42353,-2.969106 1.25631,0 11.91672,5.805185 23.68972,12.9004 15.76993,9.504043 21.40547,13.7829 21.40547,16.252442 0,1.843681 -1.16074,3.797518 -2.57942,4.341945 -1.41874,0.544376 -3.63255,0.115818 -4.91973,-0.952438 -1.85216,-1.537187 -3.0371,-0.776837 -5.68169,3.645837 -1.83778,3.073427 -20.36143,32.998252 -41.16358,66.499596 -34.23204,55.12972 -37.61565,61.2457 -35.64653,64.43139 1.29332,2.09237 3.59805,3.32184 5.68302,3.03166 2.09333,-0.29146 26.04128,-25.065025 59.39934,-61.447381 30.75386,-33.542112 57.16862,-60.9537006 58.73059,-60.9469718 1.56135,0.00516 8.96829,4.0429371 16.46,8.9694418 7.4917,4.9265563 13.88526,10.328377 14.20797,12.004063 0.32289,1.675685 -12.90455,36.773536 -29.39391,77.995094 -16.48934,41.221644 -29.9806,75.846294 -29.9806,76.943724 0,1.09739 1.16948,3.28757 2.59885,4.86703 1.42937,1.57938 2.11456,4.13359 1.52272,5.67596 -0.59186,1.5424 -2.03539,2.80434 -3.20777,2.80434 -1.17245,0 -11.64098,-5.94673 -23.26343,-13.21493 z m 697.71245,-7.95173 c -1.5411,-1.85679 -1.4912,-2.8585 0.2173,-4.36399 1.2197,-1.07467 4.59,-3.35805 7.4896,-5.07407 l 5.2719,-3.12007 -20.4998,-79.652758 c -14.6798,-57.038868 -20.0283,-80.400189 -18.8392,-82.285396 0.9134,-1.447923 10.0679,-7.113473 20.3434,-12.589998 10.2754,-5.47656 19.9873,-9.968414 21.5819,-9.98194 1.5947,-0.01549 3.513,1.02642 4.2629,2.310995 0.75,1.284574 25.4285,28.9397749 54.8413,61.456034 52.9579,58.545922 53.5166,59.094841 57.4888,56.492169 2.2062,-1.445548 5.4908,-2.628296 7.2992,-2.628296 1.8083,0 3.708,1.094878 4.2214,2.433093 0.5137,1.338164 0.02,3.143417 -1.0964,4.011651 -1.1165,0.868235 -16.3352,9.364839 -33.8192,18.881346 -17.484,9.51651 -33.0222,17.30271 -34.5293,17.30271 -1.6242,0 -2.7402,-1.42118 -2.7402,-3.48958 0,-2.09211 2.0443,-4.6529 5.1047,-6.39432 2.8075,-1.59764 5.1095,-3.51298 5.1154,-4.25643 0.01,-0.74347 -20.831,-23.958566 -46.3043,-51.589055 -25.4733,-27.630558 -46.5359,-50.016483 -46.8059,-49.7465408 -0.2702,0.2701658 7.2674,30.3909338 16.7497,66.9354168 9.4823,36.544549 17.4602,66.723989 17.7287,67.065399 0.2685,0.34155 3.2335,-1.07595 6.5891,-3.14985 3.3555,-2.07384 7.2324,-3.33639 8.6154,-2.80573 1.383,0.53073 2.5138,2.3318 2.513,4.00243 -10e-4,2.1245 -5.5685,5.98454 -18.5232,12.84213 -10.187,5.39254 -18.9166,9.80463 -19.399,9.80463 -0.4828,0 -1.7773,-1.0845 -2.8774,-2.40998 z M 467.54205,77.317615 c -16.51702,-10.02424 -20.03026,-12.855811 -19.60927,-15.804644 0.37812,-2.648534 1.73346,-3.592488 5.15809,-3.592488 4.26856,0 7.95768,-5.320559 45.50645,-65.6316203 37.6401,-60.4576477 40.65177,-65.8631337 38.20312,-68.5688367 -1.46202,-1.615471 -2.20554,-4.116782 -1.65232,-5.558475 0.55322,-1.441642 2.23063,-2.621258 3.72751,-2.621258 1.49692,0 11.83703,5.375336 22.97806,11.945173 11.14099,6.569803 20.68532,12.63913 21.20953,13.487316 0.52432,0.848237 0.45666,2.836269 -0.15041,4.417838 -0.80697,2.102902 -2.37668,2.621085 -5.84076,1.928281 -4.61679,-0.923407 -5.75925,0.69437 -44.94139,63.640267 -22.11227,35.523277 -40.66979,65.801216 -41.23889,67.284332 -0.58213,1.516983 -0.15729,2.69653 0.97142,2.69653 1.1034,0 1.76097,1.71864 1.46128,3.819167 -0.29968,2.100579 -1.69586,4.033283 -3.10262,4.294896 C 488.81511,89.31574 478.60918,84.034349 467.542,77.317615 Z M 1638.9859,-97.472525 c -0.5922,-0.592219 -0.3298,-2.472721 0.5834,-4.178895 1.4218,-2.65646 0.01,-4.0655 -9.8646,-9.80841 -6.3386,-3.68846 -36.3299,-20.99089 -66.6472,-38.44988 -30.3173,-17.459 -55.8307,-31.74364 -56.6963,-31.74364 -0.8656,0 -1.5739,0.76732 -1.5739,1.70514 0,0.93783 -1.4893,1.70515 -3.3096,1.70515 -1.8204,0 -3.7898,-0.77669 -4.3765,-1.72604 -0.5867,-0.94934 3.7102,-10.54083 9.5487,-21.3144 7.955,-14.67923 11.4507,-19.58836 13.9483,-19.58836 2.6779,0 3.1956,0.93539 2.6343,4.75941 -0.6799,4.63229 1.1009,5.79256 66.6845,43.44823 54.0755,31.04819 67.662,38.19023 68.7958,36.16425 0.777,-1.38854 2.5497,-2.52458 3.9393,-2.52458 1.3896,0 2.9321,1.05686 3.4278,2.34858 0.4955,1.29174 -3.913,10.88323 -9.7971,21.31437 -6.7335,11.93719 -11.7215,18.965822 -13.4592,18.965822 -1.5185,0 -3.2454,-0.484347 -3.8377,-1.076747 z m 26.5098,-47.555715 c 0.7423,-3.88291 -0.6813,-5.17637 -14.7212,-13.37538 -8.5487,-4.99222 -38.2358,-22.24083 -65.9714,-38.33021 -27.7356,-16.08939 -51.3306,-29.25349 -52.4334,-29.25349 -1.1028,0 -2.0051,0.76732 -2.0051,1.70517 0,0.93782 -1.4893,1.70514 -3.3097,1.70514 -1.8203,0 -3.794,-0.78379 -4.3861,-1.74171 -0.592,-0.95797 3.8732,-10.35762 9.9228,-20.88812 7.8442,-13.65422 11.9148,-19.14638 14.1908,-19.14638 2.2492,0 3.2015,1.24522 3.2253,4.21769 0.032,3.74712 7.3551,8.45136 65.6484,42.16095 36.0879,20.8688 66.5736,37.96194 67.7459,37.9848 1.1723,0.0205 2.1314,-0.72575 2.1314,-1.66357 0,-0.93785 1.4526,-1.70517 3.2279,-1.70517 1.7753,0 3.5977,0.96369 4.0497,2.14151 0.4518,1.17784 -4.1348,10.76933 -10.1928,21.3144 -8.3432,14.52299 -11.8548,19.17289 -14.4793,19.17289 -2.784,0 -3.3034,-0.84463 -2.6432,-4.29852 z m 27.4834,-43.78201 c -0.7658,-1.2218 -1.19,-3.45581 -0.9424,-4.96445 0.325,-1.98224 -18.1143,-13.49962 -66.4847,-41.52648 -36.8141,-21.33092 -67.217,-37.93669 -67.5619,-36.90177 -0.3448,1.03492 -2.0526,1.88168 -3.7948,1.88168 -1.7422,0 -3.646,-0.77404 -4.2307,-1.72008 -0.5847,-0.94603 3.7821,-10.24369 9.704,-20.66142 5.9219,-10.41774 11.8037,-19.34699 13.0706,-19.8428 1.2669,-0.49556 2.9759,0.16935 3.7977,1.47847 0.8217,1.30899 1.1184,3.58977 0.6593,5.06853 -0.6128,1.97354 4.046,5.44662 17.5167,13.05864 10.0934,5.70357 40.1856,22.69408 66.8717,37.75669 45.0276,25.41528 48.7359,27.19135 51.5173,24.67419 1.6485,-1.49186 4.1768,-2.25982 5.6185,-1.70661 1.4417,0.55322 2.6104,1.60541 2.5973,2.33824 -0.017,0.73281 -5.1927,10.48621 -11.5098,21.67425 -6.3172,11.18804 -12.3747,20.62819 -13.461,20.97811 -1.0863,0.35009 -2.6019,-0.36342 -3.3678,-1.58519 z m 26.12,-46.80851 c -0.6081,-0.60816 -0.7134,-2.71828 -0.234,-4.68916 0.6638,-2.72847 -0.4625,-4.33941 -4.7202,-6.7516 -3.0756,-1.74251 -33.0554,-18.93706 -66.6218,-38.21018 -46.2574,-26.56003 -61.5079,-34.5638 -63.0053,-33.06635 -1.0866,1.08666 -2.9973,1.97568 -4.2459,1.97568 -1.2486,0 -2.6707,-1.04366 -3.1602,-2.31927 -0.4898,-1.27561 3.8586,-10.90338 9.6625,-21.39502 7.5561,-13.65928 11.3343,-18.9128 13.3059,-18.50202 1.757,0.36608 2.6524,2.13496 2.4744,4.8883 -0.2563,3.96208 5.2055,7.45961 66.8609,42.81662 55.5511,31.85662 67.4815,38.09035 69.12,36.11603 1.0892,-1.31237 2.9552,-2.38614 4.1469,-2.38614 1.1915,0 2.5557,1.01457 3.0315,2.25459 0.4759,1.24001 -3.8541,10.82088 -9.6221,21.29084 -6.4668,11.73831 -11.5223,19.04526 -13.1872,19.05981 -1.4849,0.0103 -3.1974,-0.47423 -3.8055,-1.08213 z m -77.5156,-311.3634 c 0.4466,-26.4158 0.6277,-27.70872 3.8788,-27.70872 2.2384,0 3.5976,1.3184 3.9553,3.83658 0.5448,3.8366 0.5448,3.8366 77.892,3.8366 77.3474,0 77.3474,0 77.8922,-3.8366 0.3363,-2.36829 1.914,-4.0321 4.1223,-4.34749 3.3143,-0.47318 3.6581,0.52913 4.6788,13.64122 0.6059,7.7837 1.0945,19.52334 1.0857,26.08817 -0.017,6.56485 -0.6715,12.97072 -1.4729,14.23531 -0.8015,1.26453 -2.8998,2.02402 -4.663,1.68772 -1.7713,-0.33783 -3.4499,-2.32055 -3.7509,-4.43068 -0.5448,-3.81916 -0.5448,-3.81916 -78.0106,-3.81916 -77.466,0 -77.466,0 -77.466,4.26288 0,3.42145 -0.8497,4.26289 -4.3051,4.26289 -4.3051,0 -4.3051,0 -3.8366,-27.70872 z m 165.4419,-34.81351 c -1.1722,-0.46891 -2.1313,-2.32326 -2.1313,-4.12082 0,-3.17292 -2.2613,-3.26818 -77.5845,-3.26818 -76.4476,0 -77.5844,0.048 -77.5844,3.41029 0,2.50088 -1.1367,3.41031 -4.2629,3.41031 -4.2628,0 -4.2628,0 -4.2628,-27.40105 0,-27.40099 0,-27.40099 3.8366,-26.85613 2.2981,0.32663 4.0324,1.91243 4.3249,3.9552 0.4812,3.35926 1.6171,3.40364 75.8793,2.96477 41.4651,-0.24511 76.2904,-0.7736 77.3901,-1.17457 1.0995,-0.40072 2.2504,-2.50248 2.5576,-4.66994 0.3709,-2.61793 1.7036,-3.94087 3.969,-3.94087 3.2759,0 3.4103,1.13675 3.4103,28.84547 0,17.8094 -0.6524,29.00863 -1.7053,29.27181 -0.9377,0.23446 -2.6643,0.0427 -3.8366,-0.42629 z m -164.9727,-64.08531 c -0.4098,-1.17228 -0.9611,-13.25756 -1.2254,-26.85615 -0.4804,-24.72469 -0.4804,-24.72469 3.7825,-24.72469 3.1282,0 4.4085,1.02575 4.81,3.85391 0.5472,3.85384 0.5472,3.85384 77.5614,3.4103 75.4843,-0.43481 77.027,-0.51154 77.6608,-3.85392 0.3554,-1.87565 1.4474,-3.91481 2.4261,-4.53138 0.9787,-0.61662 2.8084,-0.72634 4.0657,-0.24404 1.7792,0.68275 2.286,6.91204 2.286,28.09584 0,27.21859 0,27.21859 -3.8366,26.67375 -2.4655,-0.35011 -4.0312,-1.91591 -4.3814,-4.3815 -0.5448,-3.8366 -0.5448,-3.8366 -78.0106,-3.8366 -77.466,0 -77.466,0 -77.466,4.26289 0,3.14808 -0.9058,4.26287 -3.4638,4.26287 -1.9051,0 -3.799,-0.95915 -4.2087,-2.13143 z M 1332.567,281.39489 c 10.785,-4.40784 20.1333,-8.53543 20.7738,-9.17236 0.6405,-0.63691 -0.7767,-5.37831 -3.1492,-10.53638 -2.3726,-5.15809 -4.5001,-9.57501 -4.7278,-9.81544 -0.2276,-0.24043 -12.6223,4.44287 -27.5435,10.40716 -14.9213,5.96435 -32.1171,12.50319 -38.213,14.53077 -6.096,2.02753 -12.042,4.29509 -13.2134,5.0389 -1.6573,1.05223 -1.3451,3.67659 1.4067,11.82502 l 3.5367,10.47262 20.7602,-7.36803 c 11.4181,-4.0524 29.5844,-10.97448 40.3695,-15.38226 z M 671.25986,292.4165 c 1.70922,-5.0284 2.91827,-9.325 2.68679,-9.548 -0.23171,-0.22323 -13.84897,-5.4082 -30.26106,-11.52262 -16.41211,-6.11439 -34.93915,-13.40665 -41.17127,-16.20496 l -11.3311,-5.08786 -3.64135,9.51549 c -2.00278,5.23355 -3.04233,10.07611 -2.31012,10.76127 0.7322,0.68522 7.08613,3.71168 14.11989,6.7255 7.03376,3.01379 24.68207,9.96965 39.21849,15.45739 14.5364,5.48784 27.13908,9.76824 28.00596,9.5121 0.86691,-0.25633 2.97456,-4.57991 4.68377,-9.60831 z m 747.64934,-51.31761 15.9725,-8.63607 -4.5463,-7.98162 c -2.5005,-4.38984 -5.1677,-8.69081 -5.927,-9.55769 -0.8065,-0.92051 -15.5698,5.46283 -35.4928,15.34639 -19.2023,9.52596 -34.1272,17.93952 -34.1468,19.24946 -0.021,1.2798 1.968,6.00686 4.416,10.50451 l 4.4507,8.17762 19.6506,-9.23326 c 10.8078,-5.07831 26.8382,-13.11949 35.6231,-17.86934 z m -837.05541,5.93138 c -0.24351,-0.24351 -16.22532,-8.40662 -35.5147,-18.1397 l -35.07161,-17.69653 -4.61693,8.62082 c -4.61695,8.62082 -4.61695,8.62082 -1.0185,11.17854 1.97913,1.40676 18.28303,10.00486 36.23086,19.10689 l 32.6324,16.54912 3.90079,-9.58802 c 2.14546,-5.27339 3.70143,-9.78743 3.45769,-10.03112 z m 885.21891,-33.33194 c 3.3931,-2.0097 18.991,-12.10157 34.6619,-22.42649 28.4926,-18.77259 28.4926,-18.77259 25.2378,-23.20226 -1.79,-2.43631 -5.0583,-6.63001 -7.2628,-9.31937 l -4.0081,-4.88973 -15.4999,10.85778 c -8.5249,5.97176 -23.6095,15.84528 -33.5213,21.94121 -9.9118,6.0959 -18.0532,11.79719 -18.0922,12.66954 -0.037,0.87233 2.423,5.26458 5.4709,9.76065 3.048,4.49602 5.8349,8.19439 6.1931,8.21856 0.3581,0.0267 3.4275,-1.60028 6.8206,-3.60989 z M 479.12719,202.72375 c 2.51611,-4.29342 4.31529,-8.00308 3.99814,-8.24361 -0.31715,-0.24043 -13.23735,-8.80926 -28.71162,-19.04149 -15.47424,-10.2323 -29.02774,-19.18402 -30.11885,-19.89274 -1.2689,-0.82423 -3.9289,1.87247 -7.38065,7.48226 -2.96824,4.82399 -4.75045,9.23703 -3.96049,9.80677 0.78999,0.56973 14.37913,9.65115 30.19811,20.18091 15.81899,10.52979 29.35551,18.77808 30.08119,18.32961 0.72565,-0.44865 3.37802,-4.32826 5.89417,-8.62171 z m -79.89367,-66.03013 c -8.57097,-6.52723 -22.07611,-17.32996 -30.01139,-24.00601 -7.93528,-6.67609 -16.22105,-13.566013 -18.41288,-15.310983 -3.97415,-3.163964 -4.00108,-3.154568 -9.79966,3.410313 -3.19798,3.62063 -5.8104,7.35027 -5.80537,8.28808 0.005,0.93786 7.51021,8.0232 16.67807,15.74519 9.16788,7.72204 24.61482,20.13048 34.32658,27.57432 l 17.6577,13.53434 5.47529,-8.68382 5.47525,-8.68375 z M 1559.65,149.71904 c 11.5592,-9.06325 26.4454,-21.20185 33.0806,-26.97475 l 12.0641,-10.49617 -7.2255,-7.98086 c -3.9741,-4.389495 -7.7018,-7.980848 -8.2838,-7.980848 -0.5821,0 -8.898,6.597648 -18.4798,14.661378 -9.5818,8.06377 -24.0587,19.70818 -32.1709,25.87648 l -14.7494,11.21504 6.8548,9.07919 c 3.7701,4.99353 7.0885,9.07913 7.3741,9.07913 0.2856,0 9.9767,-7.41539 21.5358,-16.47859 z m 82.6291,-72.615593 c 15.5549,-15.239806 29.7182,-29.725853 31.4741,-32.191368 3.1925,-4.482561 3.1925,-4.482561 -5.3895,-11.169696 l -8.5821,-6.687118 -31.1304,30.778948 -31.1304,30.779 6.9193,8.022699 c 3.8056,4.412508 7.5128,8.057258 8.2383,8.099468 0.7255,0.0427 14.0459,-12.392126 29.6007,-27.631933 z M 333.79149,94.596959 339.61626,87.792045 307.9208,56.147238 276.22535,24.502483 l -6.38155,7.109274 -6.38154,7.109309 6.6668,7.962726 c 3.66672,4.379513 17.48169,18.482726 30.69987,31.340429 13.21818,12.857704 24.73161,23.377649 25.58542,23.377649 0.85383,0 4.17351,-3.062204 7.37714,-6.804911 z M 1698.8171,16.677602 c 7.3548,-8.6160701 19.6518,-23.6847661 27.3267,-33.485942 7.6749,-9.80121 13.9545,-18.564796 13.9545,-19.474607 0,-0.909777 -3.9209,-4.39896 -8.7131,-7.753722 l -8.7132,-6.099563 -16.3033,20.777922 c -8.9668,11.427833 -21.5621,26.8598822 -27.9895,34.293445 -6.4274,7.433546 -11.4755,14.090496 -11.218,14.79323 0.2573,0.702768 3.921,4.012442 8.1413,7.354917 4.2203,3.342474 8.2287,5.89333 8.9078,5.668579 0.679,-0.224786 7.252,-7.458189 14.6068,-16.074259 z M 259.24023,28.006947 c 2.76327,-3.053396 2.7959,-3.346777 0.2643,-2.375271 -2.05603,0.788952 -2.88841,0.22272 -2.88841,-1.964765 0,-1.690227 1.93711,-5.095033 4.3047,-7.566296 l 4.30472,-4.493197 -14.40043,-17.2213322 C 242.90489,-15.085707 231.51249,-29.347709 225.5087,-37.307285 l -10.916,-14.472022 -7.54959,5.971821 c -4.15226,3.284514 -7.7076,6.128527 -7.9007,6.319995 -0.19312,0.191159 5.99588,8.522384 13.75332,18.513169 7.75745,9.990682 20.57621,25.8463512 28.48614,35.234749 7.90991,9.388415 14.45457,17.105945 14.54368,17.150052 0.0891,0.04268 1.58072,-1.48747 3.31471,-3.403532 z m 63.04191,-72.380983 c 17.82857,-15.951214 67.46835,-60.288694 110.31057,-98.527734 l 77.89497,-69.52558 -14.29287,-17.76776 c -7.86107,-9.77225 -21.82054,-29.13964 -31.02101,-43.03865 -9.20046,-13.89901 -21.49914,-34.0893 -27.33042,-44.86735 -5.83125,-10.77806 -14.86488,-29.09309 -20.07472,-40.70017 -5.20983,-11.60702 -12.98015,-30.7805 -17.26735,-42.60775 -4.2872,-11.8272 -10.43722,-31.09984 -13.6667,-42.8281 -3.22948,-11.72818 -8.11128,-32.45016 -10.8484,-46.04873 -2.73713,-13.59859 -6.3159,-35.85083 -7.95282,-49.44941 -2.10109,-17.45474 -2.96998,-37.25917 -2.95504,-67.35351 0.0155,-30.38154 0.88279,-49.48723 3.02016,-66.50092 1.64941,-13.12968 4.90136,-33.84726 7.22649,-46.0391 2.32515,-12.19184 6.45505,-30.60747 9.1776,-40.92365 2.72253,-10.31617 8.50173,-29.11546 12.84263,-41.77622 4.34091,-12.66075 11.32451,-31.05478 15.51909,-40.87557 4.1946,-9.8209 12.94702,-28.20242 19.44985,-40.84798 l 11.82331,-22.9919 -15.75,-15.45555 c -8.66249,-8.50057 -18.4406,-17.74245 -21.72914,-20.53755 -3.28853,-2.79507 -8.78517,-7.18045 -12.21476,-9.74531 -3.42957,-2.56482 -7.26116,-5.66917 -8.51464,-6.89845 -1.25346,-1.22932 -8.21831,-6.61217 -15.47746,-11.96188 -13.19846,-9.72677 -13.19846,-9.72677 -27.28245,-9.70064 -7.74619,0.0155 -14.99081,0.60281 -16.09918,1.30768 -1.41529,0.90001 2.07735,9.3948 11.73221,28.53519 7.56108,14.98945 14.03892,27.58124 14.39518,27.98168 0.35628,0.4002 1.67985,-0.68333 2.94128,-2.40847 1.40117,-1.91622 3.38464,-2.71789 5.09784,-2.0605 1.54237,0.59189 2.80429,2.2069 2.80429,3.58891 0,1.38203 -3.15498,7.54467 -7.01104,13.6947 -4.6081,7.34948 -8.11465,11.18197 -10.23092,11.18197 -1.93971,0 -3.20947,-1.18635 -3.19374,-2.98401 0.0155,-1.6412 0.71485,-4.07217 1.55667,-5.40208 1.0713,-1.69257 -3.66917,-12.8771 -15.79876,-37.27515 l -17.32934,-34.85709 -47.74424,1.14518 c -44.34038,1.06352 -47.94609,1.38083 -50.5753,4.45098 -1.55709,1.81815 -4.05087,3.3058 -5.54174,3.3058 -1.55149,0 -2.7107,-1.42307 -2.7107,-3.32762 0,-1.8302 6.71404,-14.46033 14.92008,-28.06687 12.38204,-20.531 15.60653,-24.7509 18.95544,-24.8074 3.3967,-0.058 3.9064,0.6066 3.22048,4.1948 -0.8149,4.2628 -0.8149,4.2628 23.67334,4.2628 18.50107,0 24.46658,-0.5211 24.39967,-2.1314 -0.0485,-1.1723 -4.96755,-11.7229 -10.93068,-23.4458 -7.96773,-15.6638 -11.15698,-20.5234 -12.02991,-18.3304 -0.66861,1.6797 -2.97141,2.984 -5.26826,2.984 -2.24424,0 -4.08045,-0.8917 -4.08045,-1.9816 0,-1.0898 3.52585,-7.9957 7.83524,-15.3463 5.29187,-9.0266 8.85696,-13.3648 10.98285,-13.3648 1.73119,0 3.6367,0.7913 4.23446,1.7585 0.59778,0.9672 -0.43907,4.1686 -2.30406,7.1141 -3.39088,5.3555 -3.39088,5.3555 10.52356,33.3693 l 13.91447,28.0138 54.86444,-0.6459 c 48.95735,-0.5763 55.21381,-0.962 58.10943,-3.5825 1.78474,-1.6152 4.52739,-2.9367 6.09475,-2.9367 1.56735,0 2.84976,1.0449 2.84976,2.322 0,1.2772 -6.22829,12.5951 -13.8406,25.151 -7.61233,12.55595 -14.59875,23.77195 -15.52541,24.92458 -1.23123,1.53141 -2.5904,1.61095 -5.04835,0.29574 -1.89696,-1.0152 -2.95745,-2.85824 -2.4322,-4.22702 0.71659,-1.86735 -0.72734,-2.4147 -6.26205,-2.37372 l -7.19337,0.0533 6.82059,4.20097 c 3.75133,2.31046 7.35041,4.20486 7.99792,4.20963 0.64751,0.005 9.08801,3.75417 18.75666,8.33186 9.66865,4.57769 24.86891,11.01354 33.7783,14.30174 8.90944,3.28828 17.84353,6.47448 19.85357,7.08043 3.10083,0.9348 5.10137,-0.96292 13.20246,-12.52407 5.25132,-7.49419 15.87991,-21.52342 23.61913,-31.17614 7.73921,-9.65271 23.66669,-27.4188 35.39438,-39.4801 11.72772,-12.0614 28.61259,-28.2595 37.52201,-35.9959 8.90943,-7.7364 24.44138,-20.2531 34.51543,-27.815 10.07409,-7.562 27.72242,-19.7238 39.2185,-27.0263 11.49613,-7.3025 33.1791,-19.5144 48.18445,-27.1374 15.00533,-7.6231 39.36125,-18.5912 54.12425,-24.3735 14.76297,-5.7823 38.9335,-13.9465 53.71228,-18.1427 14.77875,-4.1962 36.46194,-9.5378 48.18488,-11.8703 11.72292,-2.3324 30.90586,-5.5012 42.6288,-7.0417 11.87281,-1.5601 39.65702,-3.1903 62.72283,-3.6801 25.47054,-0.5408 49.75369,-0.1118 63.09059,1.1144 11.9252,1.0966 29.7391,3.1508 39.5863,4.5651 9.8472,1.4143 28.2629,4.8622 40.9236,7.662 12.6608,2.7997 32.2274,7.8267 43.4814,11.1711 11.254,3.3444 32.0221,10.6025 46.1513,16.1291 14.1291,5.5267 36.3813,15.3698 49.4494,21.8736 13.068,6.5039 32.386,17.056 42.9289,23.449 10.5429,6.3931 25.8893,16.3781 34.103,22.189 8.2138,5.8109 23.2429,17.223 33.3981,25.3602 10.1552,8.1371 27.7104,23.7095 39.0117,34.6053 11.3013,10.8958 27.4498,27.8052 35.8856,37.5765 8.4358,9.77128 22.0321,26.74145 30.214,37.71138 8.1819,10.96994 19.7636,27.79776 25.7372,37.39515 l 10.861,17.44977 6.0234,-7.00107 6.0235,-7.00115 31.2254,0.0267 31.2255,0.0267 -4.5605,-8.37919 c -2.5083,-4.60853 -4.0455,-9.21243 -3.4161,-10.23092 0.6294,-1.01843 1.9353,-1.85173 2.9019,-1.85173 0.9666,0 3.0315,1.49303 4.5885,3.31786 2.7542,3.22771 4.5775,2.29668 67.112,-34.26806 57.3024,-33.50544 64.0761,-37.91364 62.3952,-40.60524 -1.0371,-1.6607 -1.3805,-4.3359 -0.7631,-5.9449 0.6174,-1.609 2.0465,-2.6174 3.1758,-2.241 1.1292,0.3762 9.2307,12.8139 18.0033,27.63873 8.7726,14.8249 15.5456,28.00876 15.051,29.29755 -0.4946,1.28878 -1.9808,2.34325 -3.3024,2.34325 -1.3219,0 -3.4561,-1.51578 -4.7429,-3.36836 -2.2478,-3.23655 -3.6935,-2.59489 -36.9514,16.40036 -19.0366,10.8728 -34.3306,20.05025 -33.9866,20.39431 0.3443,0.34422 9.3973,-1.97457 20.1184,-5.15255 10.721,-3.17793 21.7947,-6.69107 24.6082,-7.80694 2.8135,-1.11586 15.4742,-5.67017 28.1349,-10.12072 12.6609,-4.4505 33.3784,-12.72378 46.0392,-18.38515 12.6607,-5.6613 26.2805,-11.65632 30.2663,-13.32221 3.9858,-1.66581 7.247,-3.30551 7.247,-3.64374 0,-0.33836 -5.7136,-12.02333 -12.6971,-25.96683 -6.9834,-13.9435 -18.5894,-35.6107 -25.7911,-48.1492 -7.2018,-12.5385 -19.6167,-32.7725 -27.5885,-44.9643 -7.9719,-12.1918 -21.9356,-32.1421 -31.0304,-44.334 -9.0949,-12.1918 -22.8506,-29.8401 -30.5682,-39.2185 -7.7177,-9.3783 -23.3914,-27.0266 -34.8304,-39.2185 -11.4389,-12.1918 -31.9242,-32.6901 -45.5228,-45.5518 -13.5986,-12.8616 -32.3979,-29.6862 -41.7762,-37.388 -9.3784,-7.7018 -27.0267,-21.4444 -39.2186,-30.5393 -12.1918,-9.0949 -32.1421,-23.0601 -44.3339,-31.0338 -12.1918,-7.9738 -33.2906,-20.879 -46.8863,-28.6783 -13.5957,-7.7993 -39.3008,-21.246 -57.1226,-29.8816 -17.8218,-8.6355 -45.064,-20.6906 -60.5382,-26.7891 -15.4743,-6.0985 -41.1795,-15.2963 -57.1226,-20.4396 -15.9432,-5.1433 -41.2647,-12.4662 -56.2701,-16.2731 -15.0053,-3.8069 -39.5595,-9.2303 -54.5648,-12.052 -15.0054,-2.8218 -35.723,-6.2941 -46.0391,-7.7162 -10.3162,-1.4222 -26.4299,-3.3778 -35.8082,-4.3458 -9.3784,-0.9679 -33.2912,-2.5221 -53.1396,-3.4536 -23.85464,-1.1195 -48.54876,-1.1213 -72.84605,-0.01 -20.21682,0.9284 -44.26139,2.4863 -53.43237,3.4618 -9.17096,0.9756 -27.80058,3.3429 -41.39917,5.2607 -13.59859,1.9178 -34.31618,5.4023 -46.03911,7.7434 -11.72292,2.3412 -30.90587,6.5784 -42.6288,9.4161 -11.72292,2.8377 -33.59149,8.8748 -48.59682,13.4158 -15.00535,4.541 -38.40856,12.4438 -52.00715,17.5616 -13.59857,5.1179 -33.16519,12.9077 -43.48137,17.3106 -10.31616,4.4029 -32.18473,14.731 -48.59682,22.9515 -16.41209,8.2204 -37.51334,19.383 -46.89168,24.8057 -9.37833,5.4227 -25.49204,15.2278 -35.80819,21.7891 -10.31616,6.5613 -26.0462,17.1081 -34.9556,23.4373 -8.90942,6.3292 -23.59735,17.1581 -32.63984,24.0643 -9.04248,6.9062 -26.30713,20.9575 -38.36591,31.2251 -12.05878,10.2668 -35.35314,32.1519 -51.76521,48.6327 -16.41209,16.4808 -37.36334,38.8581 -46.55834,49.7274 -9.19501,10.8693 -23.24706,28.1175 -31.22677,38.3293 -7.97971,10.2118 -23.98119,32.7622 -35.55886,50.1122 -11.57766,17.3499 -26.56601,41.1368 -33.30743,52.8597 -6.74143,11.7229 -19.38085,35.8934 -28.0876,53.7123 -8.70675,17.81882 -20.07498,42.75667 -25.26274,55.4174 -5.18774,12.66076 -12.67038,32.22737 -16.628062,43.48139 -3.957685,11.254 -10.544431,31.58793 -14.63721,45.18652 -4.09278,13.59859 -10.153083,36.38638 -13.467332,50.63954 -3.314256,14.25321 -8.258387,39.19106 -10.986961,55.41744 -2.728579,16.22644 -6.15635,40.24505 -7.617271,53.37472 -1.46092,13.12968 -3.544512,41.47505 -4.630205,62.9897 -1.497254,29.67033 -1.495443,48.62977 0.0074,78.50386 1.089811,21.66247 3.14312,49.715 4.562907,62.33897 1.419795,12.62399 4.880017,36.76441 7.689395,53.64542 2.80937,16.881 8.906647,46.0391 13.549505,64.79577 4.642855,18.75668 12.373258,46.38014 17.178674,61.38547 4.805418,15.00535 13.71468,39.94319 19.79836,55.41743 6.08368,15.47427 18.94158,44.30231 28.57311,64.06226 9.63153,19.75998 23.48681,46.23246 30.78951,58.82774 7.3027,12.59531 20.32308,33.64295 28.93417,46.772641 8.61112,13.129665 23.16827,33.847252 32.34928,46.039083 9.18098,12.191849 22.55788,29.224965 29.72642,37.851464 l 13.03374,15.6843863 7.67318,-7.9966278 c 4.22026,-4.3981505 22.26021,-21.0476415 40.08877,-36.9988725 z m -42.32517,-52.448022 c -3.1975,-5.861462 -7.83897,-14.398622 -10.31438,-18.971412 -2.47539,-4.57284 -4.50075,-9.39268 -4.50075,-10.71075 0,-1.31802 1.16075,-2.84191 2.57947,-3.38628 1.41869,-0.54441 3.61972,-0.12624 4.89118,0.92872 1.81909,1.50975 13.53355,-6.67619 54.96942,-38.41211 28.96173,-22.18194 53.4049,-41.00969 54.31817,-41.83946 0.91327,-0.82983 -9.06187,2.23054 -22.16695,6.80077 -13.1051,4.5703 -42.29207,14.67512 -64.85988,22.45531 -36.32207,12.5219 -41.01994,14.55774 -40.92365,17.73458 0.0716,2.36046 -1.0585,3.72929 -3.30154,3.99907 -2.7828,0.33463 -6.17017,-4.65638 -18.40953,-27.12533 -8.24957,-15.14447 -14.60403,-28.56531 -14.12103,-29.82403 0.48305,-1.25873 2.16052,-2.28857 3.72777,-2.28857 1.56725,0 3.70146,1.08873 4.74268,2.4194 1.57269,2.00988 6.65538,-0.16293 30.02815,-12.83794 15.47423,-8.39147 46.33346,-24.9859 68.57599,-36.87642 35.93577,-19.21071 40.3401,-22.02124 39.53519,-25.22826 -0.54271,-2.16224 0.19243,-4.52062 1.83377,-5.88275 1.63643,-1.3581 3.35414,-1.65049 4.26573,-0.72608 0.83937,0.8512 6.17807,9.89072 11.8638,20.0878 5.68572,10.19713 10.33766,19.51467 10.33766,20.70571 0,1.191 -1.32256,2.67299 -2.93903,3.2933 -1.77532,0.68126 -3.70643,0.0783 -4.87713,-1.5227 -1.06597,-1.45782 -2.46462,-2.65057 -3.1081,-2.65057 -0.64349,0 -28.56601,14.67726 -62.05008,32.61612 -33.48403,17.93882 -64.14119,34.46851 -68.12698,36.73262 -3.98578,2.26414 -7.24689,4.51834 -7.24689,5.00939 0,0.49076 0.79432,2.37698 1.76514,4.19097 0.97083,1.81402 2.66851,3.29821 3.77261,3.29821 1.10411,0 36.72887,-11.89344 79.16611,-26.42986 42.43726,-14.53641 77.96013,-26.42986 78.9397,-26.42986 0.97956,0 5.02315,6.53722 8.98578,14.52715 5.22176,10.52883 6.74356,15.20405 5.52929,16.98661 -0.92147,1.35274 -30.81872,24.41991 -66.43835,51.26045 -61.36564,46.240898 -64.7356,49.061919 -64.24097,53.777144 0.42303,4.03284 -0.1332,4.976261 -2.9334,4.976261 -2.48169,0 -5.09357,-3.003025 -9.26897,-10.657203 z M 204.70496,-236.04717 c -5.21088,-9.28429 -9.47434,-18.13253 -9.47434,-19.66276 0,-1.53027 1.16076,-3.22775 2.57944,-3.77211 1.4187,-0.54442 3.54861,-0.18552 4.73314,0.79757 1.58887,1.31864 20.0301,-7.80197 70.31581,-34.77645 55.26149,-29.6437 68.09085,-37.17546 67.7856,-39.79511 -0.20708,-1.77714 0.79056,-4.19979 2.21703,-5.38364 2.10211,-1.74464 3.03899,-1.69556 4.94466,0.25897 1.29314,1.32618 6.65228,10.03764 11.90922,19.3588 5.25696,9.32116 9.1721,17.9535 8.70029,19.18297 -0.4718,1.22947 -2.26305,2.2354 -3.98059,2.2354 -1.71753,0 -3.89648,-0.77366 -4.84209,-1.71929 -1.15563,-1.15564 -24.18774,10.3555 -70.25225,35.11121 -61.07924,32.82462 -68.53297,37.27702 -68.53297,40.93762 0,2.93089 -0.94931,4.10727 -3.31431,4.10727 -2.42109,0 -5.86767,-4.54928 -12.78864,-16.88045 z m -14.06076,-27.80662 c -0.9433,-1.21251 -5.66849,-9.28896 -10.5004,-17.94768 -4.83192,-8.65866 -8.7853,-16.82526 -8.7853,-18.14792 0,-1.32267 1.32255,-2.9124 2.93902,-3.53271 1.75415,-0.6731 3.69403,-0.0955 4.81172,1.43323 1.59076,2.17551 7.37302,-0.39272 38.4109,-17.061 20.09603,-10.79212 50.87715,-27.27668 68.40246,-36.63226 28.34272,-15.13035 31.92318,-17.52172 32.39788,-21.63838 0.37872,-3.28433 1.50736,-4.62821 3.88707,-4.62821 2.48576,0 5.90495,4.57983 13.21493,17.70065 5.42383,9.73535 9.8615,18.70605 9.8615,19.93488 0,1.22888 -0.84046,2.75371 -1.86773,3.38862 -1.02726,0.6349 -3.52105,0.27815 -5.54176,-0.79285 -3.23447,-1.71426 -11.82808,2.43677 -71.83423,34.69836 -58.67718,31.54711 -68.16665,37.18292 -68.20609,40.50779 -0.0256,2.14743 -1.25105,4.0975 -2.76036,4.39209 -1.49299,0.29149 -3.48632,-0.46197 -4.42961,-1.67461 z m -65.90956,-259.16487 c -0.55029,-4.97386 -1.51129,-29.55486 -2.13556,-54.62438 -1.07311,-43.09468 -0.9657,-45.6459 1.96925,-46.77215 1.70735,-0.65515 3.3546,-0.47745 3.66054,0.39431 0.30592,0.87207 1.22731,2.64628 2.04748,3.94268 1.18747,1.87695 5.6879,0.14869 22.09475,-8.48499 11.33194,-5.96313 20.04808,-11.36889 19.36918,-12.0128 -0.6789,-0.6439 -10.44218,-6.54303 -21.69618,-13.1092 -19.3216,-11.27319 -20.51362,-11.73283 -21.39128,-8.24836 -0.55615,2.20801 -2.26829,3.69011 -4.26288,3.69011 -2.97034,0 -3.42629,-1.53591 -4.186,-14.10075 -0.46892,-7.75541 -0.5968,-14.8531 -0.28418,-15.77265 0.31263,-0.91957 1.97163,-1.6719 3.68672,-1.6719 2.26798,0 3.42304,1.74366 4.23574,6.3943 1.08385,6.20224 1.95431,6.87183 28.97628,22.28918 l 27.85886,15.89483 47.04844,-24.42061 c 32.56876,-16.90487 47.04982,-25.28282 47.05287,-27.22215 0.002,-1.54087 1.0993,-3.22173 2.43748,-3.73525 1.33816,-0.51368 3.20101,-0.0103 4.13963,1.12263 0.93862,1.131 1.81978,12.40334 1.95813,25.04964 0.13836,12.64638 0.19374,23.95249 0.12321,25.12478 -0.0705,1.1723 -1.24114,2.13145 -2.60129,2.13145 -1.36016,0 -3.08876,-1.10032 -3.84137,-2.44514 -1.09319,-1.95341 -6.9616,0.50622 -29.18308,12.2326 -18.32813,9.67167 -27.04999,15.13369 -25.5725,16.01473 1.23321,0.73535 14.13564,8.18116 28.67205,16.5462 23.03963,13.25826 26.50147,14.78554 26.98802,11.90639 0.38781,-2.29498 1.6887,-3.14186 4.26287,-2.77523 3.46831,0.49395 3.77412,1.72454 4.79214,19.28424 0.59807,10.31617 1.36539,27.9645 1.70513,39.2185 0.60791,20.13513 0.55651,20.4705 -3.21881,21.00672 -3.12468,0.44387 -3.8366,-0.26802 -3.8366,-3.83658 0,-4.3815 0,-4.3815 -72.04267,-4.35821 -39.62347,0.0103 -73.72602,0.47478 -75.78344,1.02638 -2.10647,0.56489 -3.96888,2.60335 -4.26288,4.66589 -0.31642,2.21957 -1.95187,3.86675 -4.15081,4.18044 -3.21037,0.45773 -3.74406,-0.52486 -4.62924,-8.52575 z m 158.19008,-46.98307 c -0.62061,-3.51687 -1.99818,-7.23751 -3.06129,-8.26806 -1.06311,-1.03061 -16.19113,-10.0466 -33.61782,-20.03553 -17.42669,-9.98899 -32.20503,-18.16179 -32.84075,-18.16179 -0.63574,0 -18.86159,9.32841 -40.50189,20.72986 -29.86154,15.73285 -39.72525,21.72724 -40.91927,24.86777 -0.86528,2.27591 -1.13882,4.84087 -0.60784,5.7 0.56124,0.90816 32.72246,1.56207 76.82131,1.56207 h 75.85588 z M 1547.8801,-954.45667 c -0.9641,-1.20354 -8.3688,-13.25369 -16.4548,-26.77804 -8.0861,-13.52442 -14.7019,-25.25009 -14.7019,-26.05709 0,-0.807 1.2492,-1.9466 2.7759,-2.5325 1.7624,-0.6763 3.8348,0.3389 5.6764,2.78 2.9004,3.8452 2.9004,3.8452 66.709,-33.2578 35.0947,-20.4067 64.1632,-37.3986 64.5966,-37.7597 0.4332,-0.3611 -0.1422,-2.1459 -1.2789,-3.9662 -1.1368,-1.8203 -2.0669,-4.471 -2.0669,-5.8905 0,-1.4195 1.4099,-2.5808 3.1329,-2.5808 2.237,0 7.6273,7.6261 18.8483,26.6664 8.6435,14.6666 15.3147,27.711 14.8247,28.9876 -0.4897,1.2766 -1.9721,2.3211 -3.2939,2.3211 -1.3218,0 -3.456,-1.5568 -4.7427,-3.4596 -2.2608,-3.3434 -3.8003,-2.6096 -45.8208,21.8401 -23.9147,13.9147 -52.8583,30.62607 -64.319,37.13627 -15.4193,8.75889 -20.5691,12.50181 -19.805,14.39446 0.5679,1.40676 1.1207,4.01474 1.2284,5.79545 0.1075,1.78076 -0.6483,3.53281 -1.6797,3.89341 -1.0316,0.36073 -2.6644,-0.32932 -3.6286,-1.53256 z M 541.20915,-1149.5287 c -1.97386,-2.3783 -1.66603,-3.2613 2.22917,-6.3943 4.47667,-3.6008 4.54603,-4.0018 7.36903,-42.596 1.56735,-21.4285 2.19678,-39.5588 1.39858,-40.2896 -0.7981,-0.7308 -18.26764,-12.5072 -38.82123,-26.1697 -31.66726,-21.05 -37.87769,-24.5692 -40.69628,-23.0607 -2.53374,1.356 -3.97522,1.1311 -6.05038,-0.9441 -2.3908,-2.3908 -2.41861,-3.0228 -0.22735,-5.1645 1.37327,-1.3422 13.2113,-8.206 26.30673,-15.253 17.73299,-9.5426 24.36977,-12.3481 26.00357,-10.9921 1.20651,1.0013 2.19368,2.7955 2.19368,3.9871 0,1.1915 -1.29845,2.6648 -2.88545,3.2737 -2.13784,0.8204 2.39039,4.6227 17.4778,14.6758 l 20.36327,13.5686 1.06249,-6.3939 c 0.5844,-3.5167 1.57843,-14.9265 2.20904,-25.3552 1.14649,-18.9614 1.14649,-18.9614 -2.99409,-18.1699 -2.27735,0.4354 -4.68938,-0.097 -5.36009,-1.1816 -0.67072,-1.0852 -0.0205,-3.2981 1.4451,-4.9175 1.4655,-1.6194 8.10512,-5.5763 14.75481,-8.7932 10.2099,-4.9392 12.33671,-5.4591 13.6753,-3.3425 0.87177,1.3784 1.59682,3.006 1.61117,3.6167 0.0155,0.6108 -2.54213,2.6257 -5.681,4.4777 -5.70715,3.3673 -5.70715,3.3673 -6.87203,25.3195 -0.64063,12.0736 -1.59009,26.556 -2.10984,32.183 l -0.94498,10.2309 44.31582,29.6394 c 35.69991,23.8768 45.09323,29.4327 48.31437,28.5763 2.19917,-0.5846 4.98064,-1.7047 6.18106,-2.4891 1.62738,-1.0634 -6.8315,-18.3581 -33.25047,-67.9823 -33.64017,-63.1885 -35.62166,-66.4705 -39.16087,-64.8657 -2.05034,0.9298 -4.92779,1.23 -6.39432,0.6672 -1.46659,-0.5627 -2.66648,-2.0991 -2.66648,-3.4141 0,-1.327 11.42632,-8.6068 25.67612,-16.3585 14.12186,-7.6821 26.96564,-13.7191 28.54167,-13.4156 1.57612,0.3035 3.11308,1.8368 3.41553,3.4073 0.324,1.6812 -1.22205,3.7839 -3.75906,5.1132 -4.30902,2.2577 -4.30902,2.2577 30.60153,67.8888 34.91058,65.631 34.91058,65.631 40.86576,65.0714 5.0186,-0.4717 5.95514,-0.018 5.95514,2.8768 0,2.6409 -5.03306,6.2019 -21.74069,15.3818 -11.95737,6.5699 -33.96407,18.4345 -48.90381,26.3657 -14.93969,7.9313 -28.17591,14.0317 -29.41386,13.5567 -1.23789,-0.475 -2.25077,-2.2523 -2.25077,-3.9494 0,-1.6972 0.94649,-3.4013 2.10333,-3.7869 1.15684,-0.3857 -9.65489,-8.565 -24.02609,-18.1765 -14.37116,-9.6114 -26.39291,-17.2118 -26.71498,-16.8897 -0.32238,0.3221 -1.60982,14.8881 -2.86156,32.3688 -2.27594,31.7832 -2.27594,31.7832 2.01673,31.5163 3.11131,-0.1935 4.4212,0.6715 4.75987,3.1433 0.36341,2.6511 -2.15804,4.8338 -11.3253,9.8046 -6.48593,3.5169 -12.1645,6.3943 -12.6191,6.3943 -0.45453,0 -1.85707,-1.2417 -3.11659,-2.7593 z m 766.64125,-43.333 c -15.001,-8.3845 -27.4574,-15.831 -27.681,-16.5477 -0.2238,-0.7167 0.293,-2.4105 1.1486,-3.7639 1.2894,-2.0402 2.3521,-2.0978 6.2165,-0.3371 3.7616,1.714 5.0565,1.6952 6.7102,-0.097 1.127,-1.2214 17.9938,-30.2278 37.4817,-64.4588 19.4878,-34.2309 35.7494,-62.8102 36.1368,-63.5096 0.3874,-0.6994 -1.2573,-2.1654 -3.6548,-3.2577 -2.3974,-1.0924 -4.359,-2.92 -4.359,-4.0614 0,-1.1414 0.9882,-2.8954 2.1961,-3.8978 1.6415,-1.3623 9.0699,2.0546 29.4139,13.5297 14.9697,8.4437 27.8184,15.9475 28.5525,16.675 0.7341,0.7275 0.8201,2.6639 0.1914,4.303 -0.6571,1.7123 -2.3131,2.6414 -3.8925,2.1838 -1.5119,-0.4381 -3.9672,-1.3016 -5.4564,-1.9189 -2.143,-0.8884 -10.4709,12.4432 -39.9436,63.9432 -37.2362,65.0657 -37.2362,65.0657 -33.2608,68.0643 2.5423,1.9176 3.5913,3.9992 2.9101,5.7745 -0.5859,1.5267 -2.0484,2.741 -3.2502,2.6984 -1.2017,-0.043 -14.4584,-6.9376 -29.4593,-15.3221 z m -450.02879,-91.7993 c -0.55169,-0.8927 -0.53483,-2.8433 0.0372,-4.3347 0.57227,-1.4914 2.68646,-2.7116 4.6981,-2.7116 3.0168,0 6.73364,-5.8423 21.21586,-33.3482 10.85333,-20.6135 17.19585,-34.4901 16.60916,-36.3385 -0.52221,-1.6448 -8.9092,-20.2083 -18.63816,-41.2523 -14.42735,-31.2066 -18.37392,-38.3647 -21.40306,-38.8199 -2.71412,-0.4079 -3.572,-1.5556 -3.18641,-4.2629 0.51049,-3.5866 1.32934,-3.7198 25.67858,-4.1766 24.07598,-0.4517 25.15098,-0.3278 25.15098,2.8993 0,1.8541 -1.16567,4.0235 -2.59043,4.8208 -2.18537,1.223 -1.14778,4.5846 6.6358,21.4985 5.07438,11.0269 9.57747,20.4001 10.00686,20.8295 0.42947,0.4294 5.69194,-8.6306 11.6946,-20.1332 6.00266,-11.5026 11.1697,-21.4901 11.48234,-22.1944 0.31279,-0.7043 -1.03023,-1.2806 -2.98401,-1.2806 -2.37821,0 -3.55241,-1.0927 -3.55241,-3.3058 0,-2.5821 1.58659,-3.5436 7.24688,-4.3919 3.9858,-0.5973 10.31619,-0.8362 14.06752,-0.5308 5.5697,0.4535 6.92051,1.2589 7.3655,4.3919 0.47318,3.3304 -0.21682,3.8366 -5.22708,3.8366 -5.72692,0 -5.88658,0.2181 -20.47748,27.9714 l -14.70557,27.9714 21.17346,46.5773 c 15.18141,33.396 22.14986,46.9385 24.62369,47.8536 1.89762,0.702 4.60032,0.835 6.00607,0.2956 2.21626,-0.8505 2.55233,-10.6407 2.52969,-73.6936 -0.0155,-39.992 -0.58981,-73.5832 -1.27888,-74.647 -0.68897,-1.0638 -2.78738,-2.2253 -4.66305,-2.5811 -2.04857,-0.3886 -3.4103,-1.9993 -3.4103,-4.0338 0,-3.2335 1.1975,-3.387 26.42986,-3.387 22.35648,0 26.42988,0.3942 26.42988,2.5577 0,1.5227 -1.8976,2.7761 -4.6892,3.0973 l -4.6892,0.5396 v 75.766 c 0,75.766 0,75.766 4.1623,75.766 2.2892,0 4.5937,0.698 5.1209,1.5513 0.5276,0.8532 0.4908,2.7715 -0.082,4.2628 -0.9167,2.3889 -6.69,2.7116 -48.50176,2.7116 -33.96922,0 -47.80623,-0.5582 -48.67489,-1.9638 -0.66756,-1.0801 0.12821,-2.9454 1.76927,-4.145 2.76051,-2.0186 2.04895,-4.2172 -9.54412,-29.4874 -6.88995,-15.0184 -13.03205,-26.773 -13.64928,-26.1214 -0.61713,0.6516 -7.33116,13.0471 -14.92007,27.5455 -7.58881,14.4983 -13.79791,26.5836 -13.79791,26.8561 0,0.2725 1.58801,0.4955 3.52892,0.4955 2.68428,0 3.39845,0.9182 2.98401,3.8365 -0.49929,3.5155 -1.56767,3.8783 -12.76228,4.3347 -6.71951,0.2739 -12.66873,-0.2322 -13.22044,-1.125 z m 171.94029,-2.1584 c -0.7268,-1.1759 0.2946,-3.2841 2.427,-5.0111 3.67,-2.9717 3.6816,-3.2155 3.6816,-77.1933 0,-72.7146 -0.069,-74.234 -3.4103,-75.2946 -1.8822,-0.5974 -3.4103,-2.5799 -3.4103,-4.4246 0,-3.1845 1.1399,-3.3199 24.1586,-2.8691 18.1277,0.355 24.3447,1.0333 24.9043,2.7172 0.4108,1.2363 -0.8665,2.6657 -2.8441,3.1829 -3.5818,0.9367 -3.59,1.1104 -3.59,76.6192 0,67.6252 0.2851,75.6804 2.6764,75.6804 1.8001,0 2.4979,1.256 2.1314,3.8366 -0.5297,3.7287 -1.1762,3.8499 -23.0075,4.3114 -15.9799,0.3379 -22.8247,-0.1108 -23.7171,-1.555 z m -5.4794,1269.734837 c 14.5601,-1.394833 37.1274,-4.489204 50.1495,-6.876349 13.0222,-2.387214 33.6883,-6.959004 45.9248,-10.159555 12.2364,-3.200569 31.9727,-9.248798 43.8582,-13.440508 11.8856,-4.191692 32.2501,-12.31775 45.2546,-18.05785 13.0044,-5.740203 32.785,-15.518026 43.957,-21.728606 11.1719,-6.210545 26.8348,-15.483959 34.8064,-20.607549 7.9716,-5.12362 24.469,-16.80838 36.6608,-25.96617 12.1918,-9.15774 30.6214,-24.2803 40.9547,-33.60567 10.3333,-9.32537 26.2228,-24.95106 35.3101,-34.72383 9.0873,-9.77275 22.3789,-25.05816 29.5369,-33.96757 7.1579,-8.90943 20.923,-28.09238 30.5892,-42.6288 9.666,-14.53641 22.5451,-35.63769 28.62,-46.89168 6.0749,-11.25401 15.2605,-30.05331 20.4125,-41.77623 5.152,-11.72292 11.7293,-27.8366 14.6162,-35.80819 2.8869,-7.97158 7.9025,-23.31795 11.1458,-34.10304 3.2434,-10.78508 7.456,-26.17924 9.3615,-34.20929 1.9055,-8.03005 4.7233,-21.84177 6.2617,-30.69273 1.5385,-8.85097 3.8938,-24.53319 5.2341,-34.84937 1.3403,-10.31617 2.9257,-33.71938 3.5233,-52.00712 0.677,-20.71814 0.3171,-42.89071 -0.9555,-58.82774 -1.123,-14.06751 -3.1617,-33.25047 -4.5303,-42.6288 -1.3685,-9.37835 -4.0981,-25.10838 -6.0658,-34.95562 -1.9677,-9.84726 -6.6078,-28.64655 -10.3113,-41.77623 -3.7036,-13.12967 -7.2628,-24.38218 -7.9093,-25.00556 -0.6466,-0.6234 -13.4527,-2.39181 -28.458,-3.92968 -15.0054,-1.53795 -30.6724,-3.26 -34.8157,-3.8268 -6.0717,-0.83051 -7.3442,-0.56435 -6.558,1.372 0.5365,1.32133 1.4911,3.68351 2.1214,5.24926 0.8853,2.19933 -0.6782,3.65372 -6.8738,6.39432 -4.4108,1.95112 -8.9419,3.54753 -10.0692,3.54753 -1.1272,0 -3.8465,-3.8366 -6.0428,-8.52576 -2.1963,-4.68917 -4.9089,-8.52577 -6.0282,-8.52577 -1.1192,0 -12.72,5.94673 -25.7794,13.21493 -13.0595,7.26821 -27.5508,15.29835 -32.2029,17.84473 -4.6522,2.54643 -29.5597,15.0678 -55.3501,27.82531 -25.7904,12.75748 -55.3322,27.50187 -65.6484,32.76535 -10.3161,5.26344 -25.2788,12.88012 -33.2504,16.92599 -7.9716,4.04584 -42.1173,19.93257 -75.8793,35.30387 -33.762,15.37132 -68.675,30.99179 -77.5844,34.71216 -8.9094,3.72037 -23.577,9.60277 -32.5946,13.07206 l -16.3957,6.30769 -0.9364,9.07353 c -0.5153,4.99045 -2.5414,12.2194 -4.503,16.06429 -1.9615,3.84496 -6.0484,9.81773 -9.0821,13.27291 -3.0337,3.45518 -10.12672,8.46346 -15.76224,11.12958 -8.2719,3.91327 -12.58738,4.84769 -22.39441,4.84875 -6.68135,7.4e-4 -15.45282,-1.16467 -19.49213,-2.58985 -4.03927,-1.42514 -9.83944,-4.49442 -12.88923,-6.82061 -3.04983,-2.32615 -6.00815,-4.22941 -6.57417,-4.22941 -0.56594,0 -39.13029,33.95382 -85.69853,75.45296 -46.56819,41.49915 -123.86446,110.36597 -171.76949,153.03739 -47.90501,42.67143 -99.19199,88.32688 -113.97109,101.45655 l -26.871,23.87213 23.49891,23.10884 c 12.92437,12.7099 33.30848,30.9288 45.298,40.48654 11.98952,9.5577 31.55613,23.8026 43.48139,31.65525 11.92523,7.85265 30.89004,19.342191 42.14404,25.532233 11.25402,6.190084 29.96363,15.517682 41.57694,20.728068 11.6133,5.210352 30.41262,12.843403 41.77621,16.962301 11.36361,4.118898 32.17091,10.608507 46.2384,14.421289 14.06752,3.812748 35.93607,8.799691 48.59685,11.082085 12.66073,2.282358 31.46005,4.987253 41.77621,6.010868 10.31615,1.023581 21.05862,2.125532 23.87212,2.448719 2.81352,0.323463 19.76308,0.702579 37.66574,0.843075 18.00256,0.141114 44.38198,-0.877975 59.02338,-2.280621 z m 726.2064,-32.046795 c 1.4946,-2.080668 8.9129,-13.039673 16.4853,-24.353288 7.5721,-11.313702 16.4749,-25.064471 19.7837,-30.557274 l 6.0162,-9.98698 -9.5731,-5.98796 c -9.2759,-5.8021 -9.6459,-5.8857 -11.9182,-2.69323 -1.29,1.81214 -11.4098,17.10651 -22.4887,33.987496 l -20.1434,30.692747 8.7078,6.339322 c 4.7893,3.486601 9.0914,6.339958 9.5603,6.340732 0.469,7.92e-4 2.0754,-1.700914 3.5701,-3.781565 z m -1548.11027,-5.125889 6.29542,-5.477747 -16.17183,-23.872139 c -8.89451,-13.129659 -18.98458,-28.667867 -22.42237,-34.529327 -3.4378,-5.86145 -7.05026,-10.65389 -8.02769,-10.64989 -0.97744,0.005 -5.00835,2.15116 -8.95759,4.77145 l -7.18044,4.76413 12.36891,19.526966 c 6.80291,10.739855 17.15159,26.624659 22.99708,35.299619 5.84549,8.674959 11.56752,15.743895 12.71563,15.708668 1.14809,-0.03717 4.92039,-2.528982 8.38288,-5.54173 z M 1824.3855,-171.62658 c 9.1248,-17.93118 15.9533,-33.19804 15.1748,-33.92641 -0.7787,-0.72842 -5.4675,-3.04305 -10.4198,-5.14358 -4.9521,-2.10058 -9.2576,-3.52291 -9.5679,-3.16068 -0.3101,0.36237 -7.6711,14.69533 -16.3576,31.85129 -8.6863,17.15601 -15.507,31.4553 -15.1566,31.7762 0.3501,0.32079 4.4317,2.97336 9.0701,5.89435 4.6382,2.92096 8.9356,5.31086 9.5498,5.31086 0.6141,0 8.5822,-14.67092 17.7072,-32.60203 z m -1683.00729,21.51054 7.28775,-4.27093 -15.65817,-31.11098 c -8.612,-17.11108 -16.00538,-32.16097 -16.42973,-33.44432 -0.61594,-1.8626 -2.56365,-1.56233 -9.65633,1.48886 -4.88662,2.1022 -8.884767,4.35396 -8.884767,5.00394 0,0.64993 7.318447,15.9018 16.263207,33.89303 8.94477,17.99122 17.05681,32.71126 18.02675,32.71126 0.96995,0 5.04303,-1.92192 9.05129,-4.27086 z M 1854.7802,-237.0708 c 5.1178,-12.19184 12.4763,-31.21013 16.3521,-42.26295 5.0223,-14.32167 6.4398,-20.28176 4.9339,-20.74253 -1.1625,-0.35541 -5.9074,-1.86729 -10.5446,-3.35935 -4.637,-1.49202 -8.9675,-2.13299 -9.6233,-1.42444 -0.6557,0.70859 -4.0206,9.22051 -7.4774,18.91535 -3.4569,9.69485 -10.438,27.66929 -15.5135,39.94319 -5.0756,12.27389 -8.9771,22.56724 -8.6703,22.87408 0.3069,0.30693 5.0962,2.40664 10.643,4.66613 5.5467,2.25955 10.1997,3.98432 10.3399,3.83288 0.1394,-0.15139 4.4424,-10.25052 9.5602,-22.44236 z m -1313.33057,-2.79672 c 11.68269,-10.44762 72.98897,-65.11905 136.23621,-121.49207 63.24721,-56.37302 143.22039,-127.62812 177.71818,-158.34468 62.10316,-55.29621 62.70407,-55.89455 60.78946,-60.53289 -1.06355,-2.57653 -2.38656,-11.1761 -2.94006,-19.11017 l -1.00641,-14.42554 -13.64121,-7.04414 c -7.50266,-3.87427 -18.24512,-9.70774 -23.87214,-12.96326 -5.62701,-3.2555 -25.96093,-15.78086 -45.18652,-27.83414 -19.22558,-12.0533 -44.54707,-28.29418 -56.27002,-36.09083 -11.7229,-7.7967 -26.68562,-17.98876 -33.25045,-22.64906 -6.56483,-4.66028 -20.64781,-14.46037 -31.29547,-21.77798 -10.64769,-7.3176 -21.00651,-14.44386 -23.01953,-15.83612 -2.01308,-1.39232 -7.49675,-5.49784 -12.18594,-9.12346 -4.68916,-3.62558 -11.48423,-9.30641 -15.10022,-12.62404 -3.61593,-3.31764 -7.06887,-5.30004 -7.6732,-4.40527 -0.60425,0.89473 -2.88771,4.4536 -5.07435,7.9086 -2.18659,3.45495 -4.79178,6.28179 -5.78923,6.28179 -0.99746,0 -5.15377,-2.11013 -9.2362,-4.68917 -4.08247,-2.57904 -7.42402,-5.47759 -7.42574,-6.44122 -0.002,-0.96362 1.22622,-3.50701 2.72863,-5.65199 1.50239,-2.14498 2.45514,-4.17644 2.11725,-4.51438 -0.33783,-0.33785 -17.48903,-1.07713 -38.11356,-1.64266 -20.62455,-0.56558 -44.40502,-1.45315 -52.84554,-1.97247 l -15.34634,-0.94423 -10.08451,-14.78064 c -5.54648,-8.12936 -19.91707,-28.97607 -31.93463,-46.326 -12.01755,-17.34992 -23.28393,-33.366 -25.03635,-35.59125 -3.18625,-4.0459 -3.18625,-4.0459 -9.96332,8.52575 -3.72741,6.91444 -10.46954,20.62855 -14.98255,30.47581 -4.51297,9.84726 -11.62708,26.72825 -15.80906,37.51334 -4.18197,10.78509 -10.90829,31.11903 -14.94731,45.18654 -4.03903,14.06749 -9.34052,35.55241 -11.78108,47.74424 -2.4406,12.19183 -5.62593,30.60748 -7.07854,40.92365 -1.4526,10.31618 -3.08914,37.63052 -3.6367,60.69856 -0.64787,27.29293 -0.27156,49.92397 1.07747,64.79578 1.1402,12.56964 3.92434,33.8966 6.187,47.39326 2.26264,13.49664 6.44314,33.72257 9.29001,44.94652 2.84685,11.22396 7.93094,28.95566 11.29794,39.40382 3.367,10.44816 9.16644,26.66986 12.88765,36.0482 3.72119,9.37833 10.80952,25.56582 15.7519,35.9722 4.94235,10.40633 13.31773,26.63842 18.612,36.07121 5.29424,9.4328 16.04593,26.76412 23.8926,38.514 7.8467,11.74993 20.69731,29.46732 28.55696,39.372 7.85962,9.90471 14.70678,18.01291 15.21595,18.0183 0.50913,0.005 10.48427,-8.53828 22.16697,-18.98591 z m -437.44638,13.51914 c 4.26947,-2.07425 7.41781,-4.56804 6.99632,-5.54174 -0.4215,-0.97369 -4.58373,-11.04902 -9.24942,-22.38955 -4.66568,-11.34059 -11.418003,-29.07568 -15.005162,-39.41139 l -6.522099,-18.79216 -7.718193,2.55096 c -4.245009,1.40303 -8.311164,3.08031 -9.0359,3.72726 -0.724743,0.64697 1.712446,9.94463 5.415961,20.66147 3.703522,10.71683 10.62687,29.03054 15.385214,40.69713 4.758345,11.66659 8.651537,21.44991 8.651537,21.74068 0,0.29095 0.746791,0.52861 1.659538,0.52861 0.912741,0 5.152736,-1.69711 9.422204,-3.77137 z M 1897.8942,-366.50361 c 4.1109,-15.85583 7.1423,-29.36613 6.7363,-30.02282 -0.4059,-0.65675 -5.3831,-2.17988 -11.0609,-3.38473 -5.6777,-1.2049 -10.5723,-1.89 -10.8769,-1.52249 -0.3048,0.36767 -2.6113,9.10876 -5.1261,19.42493 -2.5147,10.31617 -7.6964,29.35638 -11.5151,42.31159 -3.8185,12.95521 -6.6721,23.78447 -6.3414,24.06497 0.3309,0.28028 5.2053,2.04122 10.8323,3.91264 l 10.231,3.40257 4.8232,-14.67891 c 2.6526,-8.07342 8.1867,-27.65186 12.2976,-43.50775 z M 75.318174,-320.54998 c 1.45481,-0.5238 1.079554,-3.67833 -1.365855,-11.48137 -1.854469,-5.91736 -7.079337,-25.18409 -11.610808,-42.81493 -4.531482,-17.63084 -8.597708,-32.41472 -9.03606,-32.85306 -0.438332,-0.43854 -4.731035,0.11083 -9.539289,1.22095 -8.172718,1.88648 -8.67873,2.30494 -7.766833,6.4232 0.536498,2.42291 4.304487,17.44967 8.373311,33.39284 4.068823,15.94317 9.001976,34.12649 10.96256,40.40736 l 3.564696,11.41978 7.206183,-2.49613 c 3.963396,-1.37292 8.108841,-2.82129 9.212095,-3.21864 z M 1911.7839,-428.06684 c 2.0504,-11.24356 5.3394,-31.47711 7.3088,-44.96347 1.9695,-13.48643 3.3355,-24.76595 3.0357,-25.06568 -0.2994,-0.29947 -5.6134,-1.06423 -11.8082,-1.69887 l -11.2633,-1.15396 -1.1327,9.16807 c -0.6232,5.04245 -3.5136,23.36346 -6.4237,40.71338 -2.9099,17.34992 -5.3629,33.44751 -5.4511,35.77243 -0.1412,3.70493 0.8926,4.47688 8.3651,6.24912 4.6892,1.11213 9.6767,1.88696 11.0836,1.72188 1.8744,-0.22008 3.5536,-5.76138 6.2858,-20.7429 z M 45.603541,-416.2106 c 3.516875,-0.62329 6.39432,-1.2835 6.39432,-1.46718 0,-0.18385 -1.510074,-8.55304 -3.355722,-18.59874 -1.845647,-10.04563 -4.91492,-29.37065 -6.820609,-42.94445 -1.905685,-13.57381 -3.464884,-25.03313 -3.464884,-25.46511 0,-0.43216 -4.028422,-0.33038 -8.952047,0.22538 -4.923628,0.55615 -9.216217,1.23176 -9.53909,1.5014 -0.32287,0.26961 0.303538,7.64344 1.392028,16.38634 1.088487,8.74285 3.463367,25.10388 5.277507,36.35789 1.814144,11.254 4.21158,24.11181 5.327636,28.57297 1.506498,6.02174 2.714042,7.9119 4.687869,7.3378 1.462269,-0.42522 5.536115,-1.28329 9.052992,-1.90658 z M 1924.8951,-521.40489 c 0.6302,-7.73713 1.6303,-25.7691 2.2221,-40.07106 1.0269,-24.80784 0.927,-26.00427 -2.172,-26.01839 -1.7865,-0.0103 -7.2767,-0.49876 -12.2002,-1.09006 l -8.9522,-1.07526 v 16.19228 c 0,8.90573 -0.8481,26.3244 -1.8846,38.70811 -1.0365,12.38373 -1.3605,23.03991 -0.72,23.68046 0.6405,0.64049 5.5171,1.63157 10.8368,2.20231 5.3196,0.57075 10.1337,1.15055 10.698,1.28841 0.5645,0.13802 1.5419,-6.07967 2.1721,-13.8168 z m -1890.72062,7.26565 c 3.310419,-0.0155 3.428783,-0.67033 2.287955,-12.6137 -0.661685,-6.92723 -1.760033,-24.57556 -2.440774,-39.2185 l -1.237714,-26.62355 h -9.418106 -9.418107 l 1.111709,28.5613 c 0.61144,15.70872 1.618071,33.82184 2.236959,40.25144 1.125251,11.69015 1.125251,11.69015 7.256156,10.67597 3.371995,-0.5578 7.701861,-1.02262 9.621922,-1.03296 z M 1927.0704,-647.58613 c -0.6227,-16.17763 -1.6278,-33.9199 -2.2339,-39.42732 l -1.1019,-10.01346 -11.193,1.14678 c -6.1561,0.63068 -11.3823,1.33613 -11.6138,1.56761 -0.2313,0.23127 0.3058,9.20905 1.1943,19.95018 0.8884,10.74112 1.6277,27.77799 1.643,37.85969 l 0.027,18.33039 h 12.2047 12.2046 z M 33.986919,-645.0284 c 0.662422,-13.83305 1.911193,-32.76562 2.775053,-42.07245 0.863858,-9.30676 1.296455,-17.19561 0.961328,-17.53072 -0.335128,-0.33516 -4.488032,-1.0687 -9.228674,-1.63017 -8.619349,-1.02086 -8.619349,-1.02086 -9.646173,6.44728 -0.564754,4.10745 -1.775812,17.82688 -2.69124,30.48765 -0.915429,12.66074 -1.666279,28.96626 -1.668556,36.23447 l -0.0041,13.21493 h 9.148994 9.149001 z M 1043.5849,-687.23092 c 21.3791,-18.75668 54.9574,-48.22708 74.6183,-65.48976 31.7109,-27.84268 36.2167,-32.44815 39.9046,-40.78703 2.2865,-5.17017 5.504,-15.10792 7.1501,-22.08385 1.6461,-6.97593 4.0918,-13.26944 5.4351,-13.98554 1.3432,-0.71612 7.3642,-1.83639 13.3799,-2.48958 6.0157,-0.65313 17.1418,-3.14197 24.7247,-5.53071 7.5829,-2.38876 16.6339,-5.78932 20.1134,-7.55682 3.4796,-1.76744 6.7407,-3.21356 7.2469,-3.21356 0.5063,0 0.9206,1.50799 0.9206,3.3511 0,1.84311 -2.2438,6.88913 -4.9862,11.21339 -2.7423,4.32432 -7.0677,12.98331 -9.6119,19.24221 -2.5441,6.25887 -5.8634,16.34822 -7.3761,22.42062 l -2.7506,11.04077 -14.4938,1.92143 c -7.9715,1.05683 -18.9384,3.21704 -24.3708,4.80059 -8.7048,2.53743 -13.3727,5.95738 -39.3285,28.81397 -16.1981,14.26419 -42.4639,37.44466 -58.3683,51.51216 -15.9044,14.06751 -33.1196,29.23953 -38.256,33.7156 l -9.339,8.13826 23.8722,-11.74556 c 13.1296,-6.46008 49.1936,-23.24265 80.1421,-37.2946 30.9485,-14.05195 62.0249,-27.9233 69.0587,-30.82526 7.0337,-2.90195 23.9147,-9.8466 37.5133,-15.43258 13.5986,-5.58597 32.3979,-13.32939 41.7762,-17.2076 9.3784,-3.87826 23.9574,-10.01078 32.3979,-13.62784 8.4405,-3.61705 22.2522,-9.30282 30.6928,-12.63502 8.4405,-3.33218 24.1705,-9.24549 34.9556,-13.14074 10.7851,-3.89527 24.2131,-9.00316 29.8401,-11.35082 5.627,-2.34769 11.9769,-4.95038 14.1108,-5.78378 3.8799,-1.5153 3.8799,-1.5153 0.4263,-8.28485 -1.8995,-3.72326 -3.4536,-7.93545 -3.4536,-9.36055 0,-1.42502 3.0388,-4.14122 6.7527,-6.03596 3.714,-1.89471 7.9589,-3.44494 9.4333,-3.44494 1.4743,0 3.2942,1.65877 4.0442,3.68621 1.1838,3.19993 4.1005,-0.15729 22.112,-25.45073 11.4117,-16.02532 20.7484,-29.61907 20.7484,-30.20831 0,-0.58929 -5.1359,-9.27857 -11.4133,-19.3095 -6.2773,-10.03097 -15.2588,-23.60938 -19.9587,-30.17421 -4.7001,-6.56483 -14.054,-18.84348 -20.7866,-27.28591 -6.7327,-8.44241 -19.2109,-22.85484 -27.7295,-32.02768 -8.5185,-9.1728 -22.9933,-23.6475 -32.1661,-32.1661 -9.1728,-8.5185 -23.6148,-21.0678 -32.0935,-27.8871 -8.4785,-6.8194 -24.9774,-18.8944 -36.6642,-26.8334 -11.6867,-7.939 -28.0403,-18.4162 -36.3414,-23.2826 -8.3012,-4.8664 -22.4965,-12.5586 -31.5454,-17.0938 -9.0488,-4.5353 -23.9803,-11.4455 -33.1811,-15.3563 -9.2007,-3.9106 -22.9636,-9.4092 -30.5841,-12.219 -7.6206,-2.8098 -24.2633,-8.0801 -36.9837,-11.7119 -12.7204,-3.6318 -30.4176,-8.2051 -39.327,-10.1631 -8.9094,-1.9579 -26.1741,-5.0879 -38.3659,-6.9555 -12.1919,-1.8676 -36.9995,-4.3089 -55.1281,-5.4251 -25.50323,-1.5703 -40.16392,-1.5694 -64.79573,0.01 -17.50909,1.1184 -41.4262,3.5174 -53.14911,5.3312 -11.72292,1.8137 -28.9876,4.9386 -38.36593,6.9441 -9.37833,2.0055 -26.64298,6.3231 -38.3659,9.5948 -11.72293,3.2716 -31.6732,9.7888 -44.33396,14.4827 -12.66075,4.6938 -36.83129,15.3183 -53.71228,23.61 -16.88101,8.2916 -40.28423,21.097 -52.00715,28.4563 -11.7229,7.3594 -28.98758,19.0519 -38.36591,25.9834 -9.37835,6.9315 -21.65542,16.496 -27.28244,21.2543 -5.627,4.7584 -17.96419,15.7402 -27.41608,24.404 -9.45181,8.6638 -24.79816,24.3025 -34.103,34.7527 -9.30485,10.45021 -24.00539,28.31762 -32.66786,39.70543 -8.66248,11.38787 -15.76019,21.66429 -15.77265,22.83656 -0.012,1.1723 0.60796,2.13145 1.37878,2.13145 0.77083,0 12.47242,1.86528 26.00359,4.14502 13.53113,2.2798 39.94517,6.52417 58.69786,9.43199 18.75267,2.90783 34.96685,6.22199 36.03151,7.36476 1.06459,1.14277 12.19397,22.21542 24.73196,46.82807 22.79622,44.75027 22.79622,44.75027 26.45381,40.26757 2.76038,-3.38311 4.64254,-4.22609 7.6732,-3.43671 2.20854,0.5753 6.31752,2.94441 9.13102,5.2647 l 5.11546,4.21866 -4.69507,8.61777 -4.69503,8.61779 7.25277,2.85528 c 3.98903,1.57039 15.30962,7.03039 25.15688,12.13332 9.84726,5.10294 19.82239,10.58261 22.16699,12.17704 2.34457,1.59447 8.86679,5.46021 14.49378,8.59054 5.627,3.13034 14.45116,7.97782 19.60925,10.77219 5.15807,2.79438 16.66787,9.35346 25.57727,14.57581 8.90943,5.22229 18.5009,10.71654 21.3144,12.20947 2.8135,1.49291 23.14746,14.08753 45.18654,27.98799 22.03909,13.90045 45.82596,29.13262 52.85972,33.84934 7.03374,4.71666 17.5679,12.29607 23.40923,16.84306 5.8413,4.54706 11.30683,8.26733 12.14557,8.26733 0.83877,0 5.18989,-1.62117 9.66923,-3.60256 6.86071,-3.03486 10.60144,-3.49508 23.73629,-2.92066 11.78308,0.51528 17.03197,1.53635 21.48643,4.17927 5.89432,3.49727 5.89432,3.49727 10.35146,-0.0633 2.4515,-1.95836 21.9492,-18.90705 43.3283,-37.66371 z m 872.5702,-18.76253 c 4.5159,-0.7071 6.3853,-1.85521 6.3633,-3.908 -0.017,-1.59867 -1.1518,-10.96358 -2.5211,-20.81084 -1.3695,-9.84724 -4.1741,-27.6874 -6.2323,-39.64477 -3.1235,-18.1456 -4.2359,-21.74069 -6.7271,-21.74069 -1.6417,0 -6.8624,0.8951 -11.602,1.98905 -7.4426,1.718 -8.5039,2.47327 -7.7871,5.54174 0.456,1.954 2.2943,12.37685 4.0844,23.16194 1.7901,10.78509 4.1439,27.28243 5.2307,36.66076 1.0867,9.37833 2.2714,17.99735 2.6325,19.15333 0.3942,1.26181 2.5562,1.80144 5.4103,1.35021 2.6148,-0.4135 7.6316,-1.20207 11.1484,-1.75273 z M 49.20126,-777.7998 c 2.621724,-14.22566 3.444942,-22.35842 2.335178,-23.06969 -0.942701,-0.60415 -4.779902,-1.58877 -8.527116,-2.18797 -3.74721,-0.59921 -7.218628,-0.68393 -7.714259,-0.18811 -0.495636,0.49557 -2.614553,9.92074 -4.708711,20.94464 -2.094153,11.02397 -5.130503,29.419 -6.747441,40.87793 -1.616937,11.45889 -2.505709,21.96583 -1.97505,23.3487 0.620724,1.61756 3.885932,2.70101 9.155099,3.03774 l 8.190261,0.52326 2.971429,-20.65765 c 1.634286,-11.3617 4.793559,-30.54464 7.02061,-42.6288 z m 1851.60764,-22.98389 c 3.5169,-0.92206 6.3862,-2.60601 6.3762,-3.74212 -0.017,-1.13616 -3.0646,-14.25545 -6.7882,-29.15394 -3.7235,-14.8985 -8.7061,-33.43547 -11.0725,-41.19322 l -4.3023,-14.10497 -10.9068,3.54608 -10.9069,3.54607 2.4504,7.80699 c 1.3478,4.29379 5.8153,21.23501 9.9279,37.6471 4.1127,16.41208 7.9546,32.0251 8.5376,34.69557 0.9326,4.27024 1.6165,4.72118 5.6753,3.74212 2.5383,-0.61231 7.4923,-1.86768 11.0093,-2.78968 z M 58.505947,-821.93792 c 1.309929,-5.62701 5.699442,-22.12435 9.754475,-36.66077 4.055032,-14.53642 7.893421,-27.77682 8.529751,-29.42313 0.886359,-2.29323 -0.182721,-3.54162 -4.570777,-5.33752 -3.150257,-1.28931 -7.331754,-2.83257 -9.292214,-3.42954 -3.328239,-1.01344 -4.143313,0.97889 -12.298612,30.06221 -4.803782,17.13112 -9.812104,35.9477 -11.129606,41.81455 -2.39546,10.667 -2.39546,10.667 2.920277,12.2449 2.923656,0.86782 7.203329,1.43894 9.510379,1.26905 3.6579,-0.26908 4.499392,-1.61796 6.576327,-10.53975 z m 549.980033,-34.70337 -21.75418,-42.37658 -26.51425,-3.82855 c -14.58283,-2.10576 -41.05172,-6.05585 -58.81972,-8.77801 -17.768,-2.72217 -32.60423,-4.94941 -32.96941,-4.94941 -0.36516,0 1.97039,3.64476 5.19013,8.09947 3.21974,4.4547 17.21922,24.98046 31.10988,45.61281 13.8907,20.63235 26.73613,39.43164 28.54543,41.77623 3.27042,4.23798 3.49054,4.26815 37.6677,5.16894 18.90797,0.49822 39.98524,1.07377 46.83832,1.27886 l 12.46019,0.37301 z m 961.14222,22.34101 c 9.7886,-11.01953 27.5947,-30.88711 39.5689,-44.15014 11.9744,-13.26303 21.7715,-24.58095 21.7715,-25.151 0,-0.57 -6.944,-1.03636 -15.4311,-1.03636 -10.5192,0 -17.0377,0.83083 -20.4785,2.61015 -4.8927,2.53012 -4.9699,2.7601 -2.518,7.50166 2.2397,4.33087 2.2368,5.13448 -0.027,7.01115 -1.4048,1.16587 -3.0236,1.65011 -3.5975,1.07624 -0.5738,-0.57391 -3.4466,-4.71166 -6.3839,-9.19505 -5.1173,-7.81081 -5.66,-8.14284 -12.9829,-7.94297 -4.2033,0.11444 -18.8583,0.30639 -32.5667,0.4263 l -24.9244,0.21785 -4.6517,7.02917 -4.6516,7.02913 10.2027,21.53216 c 5.6116,11.84265 12.7823,28.19598 15.9349,36.34075 5.5462,14.32843 5.9255,14.8305 11.7001,15.48596 3.2824,0.37248 7.1531,0.80644 8.6016,0.96411 1.4485,0.15781 10.6425,-8.72937 20.4311,-19.7489 z m -47.7894,15.81934 c 0,-0.44334 -3.7199,-9.45927 -8.2665,-20.03554 -4.5466,-10.57629 -10.5585,-23.74775 -13.3598,-29.2699 l -5.0933,-10.04024 -18.2398,26.04279 c -10.0319,14.32349 -17.9162,26.36645 -17.5206,26.76203 0.3954,0.3954 12.889,2.11242 27.763,3.81523 14.8741,1.70281 28.7703,3.19401 30.8804,3.3138 2.1102,0.11995 3.8366,-0.1449 3.8366,-0.58817 z m 350.4088,-75.82305 c 7.1802,-2.56283 8.484,-3.68748 8.2615,-7.12603 -0.1446,-2.24564 -5.2684,-17.50596 -11.3849,-33.9118 -6.1163,-16.40584 -12.6929,-33.49403 -14.6147,-37.97368 l -3.4939,-8.14475 -10.114,5.10543 -10.1138,5.10544 9.0007,22.74448 c 4.9505,12.50948 11.5647,30.56633 14.6983,40.12639 3.1334,9.56007 6.4933,17.32247 7.4662,17.24979 0.9728,-0.0725 5.6053,-1.50156 10.2946,-3.17527 z M 85.327425,-914.44242 c 2.57839,-7.2682 9.887223,-26.13123 16.241865,-41.9178 l 11.55389,-28.70293 -7.11682,-3.23125 c -3.91425,-1.77715 -7.955941,-3.2481 -8.981532,-3.26868 -1.025598,-0.0205 -6.569189,11.66414 -12.319094,25.96611 -5.749911,14.30197 -13.109241,33.4377 -16.354071,42.52394 l -5.899687,16.52032 7.135295,2.52798 c 3.924412,1.3904 8.016595,2.58858 9.093739,2.66267 1.077146,0.0742 4.06803,-5.81216 6.646415,-13.08036 z M 1648.0201,-931.06764 c 0,-0.46892 -0.3837,-0.85258 -0.8526,-0.85258 -0.4689,0 -0.8526,0.38366 -0.8526,0.85258 0,0.46891 0.3837,0.85257 0.8526,0.85257 0.4689,0 0.8526,-0.38366 0.8526,-0.85257 z m 190.5591,-55.10455 8.9605,-4.6417 -19.685,-39.68311 -19.6848,-39.6831 -6.3272,3.5851 c -3.4798,1.9718 -7.7723,4.6572 -9.5388,5.9676 -3.0601,2.27 -2.4667,3.868 12.5708,33.8503 l 15.7828,31.46787 6.8265,-2.40854 c 3.7545,-1.3247 7.4973,-2.40853 8.3171,-2.40853 0.8201,0 1.4849,1.34281 1.4778,2.98402 0,1.68207 -2.9572,4.66508 -6.7608,6.83708 -4.5325,2.5882 -6.4276,4.6873 -5.7724,6.39432 0.5362,1.39769 1.8522,2.50508 2.9241,2.46078 1.072,-0.0425 5.9811,-2.16917 10.9094,-4.72209 z M 125.50818,-1011.2775 c 4.6625,-9.8845 12.71464,-25.731 17.89363,-35.2144 7.30366,-13.374 8.91386,-17.5819 7.17674,-18.7549 -1.23178,-0.8318 -5.0472,-2.9973 -8.4787,-4.8121 l -6.2391,-3.2999 -18.17358,35.9555 -18.173593,35.9556 8.213743,3.93653 c 4.51756,2.16508 8.45895,3.99702 8.75866,4.071 0.29974,0.0742 4.3597,-7.95283 9.0222,-17.83733 z m 1661.90802,-80.4109 c 2.5791,-1.5919 4.9123,-3.0299 5.1851,-3.1958 0.2729,-0.1657 -4.2218,-7.8794 -9.9877,-17.1413 -5.7661,-9.2619 -15.4926,-24.1293 -21.6144,-33.0387 -6.122,-8.9094 -11.3612,-16.4691 -11.6427,-16.7992 -0.2814,-0.3301 -1.9686,0.4373 -3.749,1.7052 -1.7805,1.2679 -5.6246,4.3305 -8.5424,6.8057 l -5.3053,4.5002 15.7367,23.6348 c 8.6552,12.999 18.2383,27.7293 21.2956,32.7339 5.4925,8.9905 5.6087,9.0668 9.7469,6.3942 2.3035,-1.4876 6.2982,-4.0072 8.8772,-5.599 z m -1597.2616,-32.4404 c 11.23232,-17.0894 20.42239,-31.3746 20.42239,-31.745 0,-0.3703 -3.05281,-2.6936 -6.78404,-5.1628 -3.73123,-2.4692 -7.14667,-4.4894 -7.58986,-4.4894 -0.44317,0 -5.75067,7.0977 -11.79439,15.7726 -6.04372,8.675 -16.15994,24.0456 -22.48052,34.157 -6.32057,10.1114 -10.98434,18.892 -10.36393,19.5124 0.62041,0.6204 3.98511,2.8052 7.47712,4.8551 5.80885,3.41 6.53381,3.4907 8.51997,0.9495 1.19399,-1.5277 11.36096,-16.7599 22.59326,-33.8494 z m 1551.6488,-47.7588 c 0,-0.5107 -5.4899,-7.9206 -12.1997,-16.4664 -6.7098,-8.5459 -19.1307,-23.8246 -27.6018,-33.9528 l -15.4022,-18.4148 -7.6843,7.6844 c -7.1089,7.1088 -7.4853,7.9133 -5.0273,10.7416 1.4614,1.6815 9.8589,11.8817 18.661,22.667 8.8021,10.7853 19.7728,24.7564 24.3792,31.0468 l 8.3754,11.4371 8.2498,-6.9072 c 4.5376,-3.7989 8.2499,-7.325 8.2499,-7.8357 z m -1510.20717,-10.2637 c 7.93117,-10.0817 20.64178,-25.5925 28.24584,-34.4684 7.60403,-8.876 13.82554,-16.6615 13.82554,-17.3012 0,-0.6397 -2.84819,-3.6638 -6.32929,-6.7203 l -6.3293,-5.5572 -8.35499,9.2172 c -4.59525,5.0694 -17.86076,21.0825 -29.47889,35.5847 -11.61816,14.5022 -21.11839,26.7793 -21.11164,27.2825 0.007,0.5032 3.26786,3.0128 7.2469,5.5769 3.97905,2.5642 7.37658,4.6744 7.55006,4.6892 0.17352,0.015 6.80459,-8.2216 14.73577,-18.3034 z m 1447.11657,-65.9865 c 0,-0.9678 -13.9958,-15.7707 -31.1017,-32.8954 -17.106,-17.1248 -31.6336,-31.1359 -32.2838,-31.1359 -0.65,0 -4.0467,3.4961 -7.5482,7.7692 l -6.3663,7.7692 30.5501,30.5952 c 16.8025,16.8275 30.8303,31.4364 31.173,32.4644 0.3427,1.0279 3.9876,-1.4331 8.1,-5.4691 4.1123,-4.0359 7.4769,-8.1299 7.4769,-9.0976 z m -1366.88911,-23.9206 30.30909,-29.8006 -5.62803,-6.7036 c -5.62802,-6.7036 -5.62802,-6.7036 -9.93415,-3.5654 -2.36839,1.7259 -16.55786,15.4508 -31.53216,30.4996 l -27.22602,27.3615 5.81981,6.0045 c 3.20091,3.3025 6.28392,6.0045 6.85112,6.0045 0.5672,0 14.67036,-13.4102 31.34034,-29.8005 z m 1289.09931,-39.1188 c 3.3954,-4.1436 6.1734,-7.8566 6.1734,-8.251 0,-0.3944 -8.6323,-7.9795 -19.1829,-16.8557 -10.5507,-8.8763 -25.3532,-20.8934 -32.8946,-26.7047 -7.5414,-5.8113 -14.1254,-10.566 -14.631,-10.566 -0.5057,0 -3.3515,3.3866 -6.3239,7.5257 -2.9726,4.1391 -5.4046,7.9337 -5.4046,8.4325 0,0.4987 10.9343,9.6551 24.2985,20.3475 13.3641,10.6924 27.7513,22.5964 31.9716,26.4532 4.2202,3.8569 8.1562,7.044 8.7466,7.0824 0.5904,0.038 3.8515,-3.3203 7.2469,-7.4639 z m -1234.50518,-10.7965 c 8.58428,-7.2682 23.79936,-19.3535 33.81133,-26.8562 10.01199,-7.5026 18.21366,-14.4085 18.22598,-15.3463 0.012,-0.9379 -2.44978,-4.5913 -5.47127,-8.1187 l -5.49367,-6.4136 -17.88817,13.8847 c -9.83848,7.6366 -25.17771,20.0004 -34.08712,27.475 -8.9094,7.4746 -16.3948,14.0998 -16.63419,14.7227 -0.23942,0.6229 1.92661,3.9978 4.81332,7.4999 2.8867,3.5021 5.66875,6.3674 6.1823,6.3674 0.51357,0 7.95724,-5.9467 16.54149,-13.2149 z m 1160.01168,-49.4004 c 2.9937,-4.3672 5.0419,-8.5898 4.5514,-9.3834 -0.4908,-0.7936 -14.7148,-10.6237 -31.6096,-21.8447 -16.8947,-11.221 -31.3389,-20.4018 -32.0981,-20.4018 -0.7591,0 -3.424,3.4873 -5.9219,7.7496 -2.4978,4.2622 -4.2972,8.4132 -3.9986,9.2244 0.2984,0.8112 14.3547,10.7059 31.2357,21.9884 16.881,11.2824 31.0764,20.5347 31.5453,20.5607 0.4689,0.026 3.302,-3.5259 6.2958,-7.8932 z m -1084.51408,-7.9132 c 7.34298,-5.0287 21.79139,-14.3702 32.10755,-20.7589 10.31615,-6.3886 19.01615,-11.8055 19.33328,-12.0374 0.31715,-0.232 -1.48224,-3.9349 -3.9986,-8.2288 -2.51639,-4.2939 -5.01342,-7.807 -5.54898,-7.807 -0.53553,0 -6.79299,3.5882 -13.90548,7.9739 -7.11246,4.3856 -21.94771,14.0439 -32.96728,21.4628 -11.01954,7.4189 -20.03554,14.1628 -20.03554,14.9863 0,0.8236 2.38145,4.2097 5.2921,7.5248 2.91065,3.315 5.53511,6.0273 5.83208,6.0273 0.29696,0 6.54786,-4.1143 13.89087,-9.143 z m 990.96928,-52.7977 c 4.4348,-7.9305 4.4659,-8.1866 1.2413,-10.1842 -1.8194,-1.1271 -17.1657,-9.0774 -34.1031,-17.6674 l -30.7952,-15.6183 -3.876,8.6794 c -2.1318,4.7736 -3.6664,9.2006 -3.4103,9.8377 0.2563,0.637 14.6611,8.4859 32.011,17.4418 17.35,8.956 32.1839,16.1401 32.9643,15.9648 0.7803,-0.1752 3.4659,-3.9795 5.968,-8.4538 z m -845.79577,-30.0391 c 0.28933,-0.8518 -1.06912,-4.6754 -3.01865,-8.4968 -1.94957,-3.8214 -4.30364,-6.9479 -5.23137,-6.9479 -0.92769,0 -17.01862,7.6732 -35.75766,17.0517 l -34.07093,17.0517 5.00745,8.1381 5.00749,8.1382 33.76885,-16.6931 c 18.57288,-9.1812 34.00558,-17.3901 34.29482,-18.2419 z m 769.00997,-7.2619 c 2.0607,-4.8777 3.1245,-9.4909 2.3638,-10.2516 -0.7607,-0.7607 -12.4614,-5.8667 -26.0017,-11.3467 -13.5403,-5.48 -32.4684,-12.7391 -42.0625,-16.1314 l -17.4437,-6.1678 -2.7496,9.458 c -1.5122,5.2019 -2.3767,9.8309 -1.921,10.2866 0.4556,0.4556 11.8446,4.8857 25.3088,9.8444 13.4641,4.9588 31.7697,12.1736 40.6791,16.0329 8.9094,3.8594 16.6222,7.0456 17.1394,7.0807 0.5174,0.035 2.6266,-3.9273 4.6874,-8.8051 z m -723.49681,-9.5195 c 16.88101,-6.5478 34.97934,-13.2466 40.21851,-14.8861 l 9.52573,-2.9809 -3.38503,-9.1893 c -2.92872,-7.9503 -3.86813,-9.0429 -6.96806,-8.1041 -1.97063,0.5969 -13.17444,4.5154 -24.89734,8.708 -11.72295,4.1925 -29.48127,11.0466 -39.46297,15.2313 l -18.1486,7.6085 3.60893,8.5421 c 2.52526,5.9772 4.39066,8.3068 6.2125,7.7588 1.43199,-0.4308 16.41533,-6.1405 33.29633,-12.6883 z m 628.64031,-27.6133 c 1.7092,-5.0284 2.9183,-9.3195 2.6868,-9.5358 -0.2312,-0.2163 -7.1764,-2.447 -15.4332,-4.9572 -8.2568,-2.5102 -28.0137,-7.887 -43.9042,-11.9485 -15.8906,-4.0615 -29.1886,-6.8799 -29.5513,-6.263 -0.3623,0.6168 -1.2974,4.5745 -2.0773,8.7948 -0.7799,4.2202 -1.4439,8.3011 -1.4755,9.0687 -0.032,0.7675 12.9868,4.732 28.93,8.81 15.9432,4.0779 34.7425,9.3168 41.7762,11.6419 7.0338,2.3252 13.4979,4.071 14.3648,3.8796 0.8669,-0.1914 2.9745,-4.4621 4.6837,-9.4905 z m -563.52924,4.9125 c 2.6401,-1.0287 20.76167,-5.9281 40.27013,-10.8874 19.50849,-4.9593 35.8486,-9.3954 36.31128,-9.8582 0.46253,-0.4626 -0.0549,-4.4005 -1.15039,-8.7508 -1.0954,-4.3503 -2.59682,-8.2836 -3.33657,-8.7408 -0.73965,-0.4571 -14.64883,2.5272 -30.90928,6.6319 -16.26044,4.1047 -35.09917,9.1619 -41.86394,11.2381 l -12.29957,3.775 3.34667,8.8051 c 1.84063,4.8427 3.34702,8.9968 3.3475,9.2313 4.6e-4,0.2345 0.33463,0.4263 0.74243,0.4263 0.40764,0 2.90165,-0.8417 5.54174,-1.8705 z m 465.80834,-29.9591 c 1.0673,-5.3144 1.6636,-9.9395 1.3249,-10.2781 -0.3383,-0.3385 -8.2035,-2.0753 -17.4777,-3.8595 -9.2743,-1.7841 -28.2596,-4.9062 -42.1898,-6.9378 -13.9302,-2.0316 -25.9255,-3.0444 -26.6562,-2.2506 -0.7307,0.7938 -1.6842,5.416 -2.1189,10.2714 l -0.7903,8.8281 8.6898,1.067 c 4.7794,0.5869 22.8822,3.3892 40.2285,6.2275 17.3463,2.8382 31.8614,5.4831 32.2558,5.8775 0.3943,0.3944 1.6343,0.7171 2.7553,0.7171 1.1209,0 2.9113,-4.3482 3.9786,-9.6626 z m -350.84315,3.0137 c 10.88557,-1.8814 27.94578,-4.3891 37.91147,-5.5728 l 18.11951,-2.1521 -1.06125,-9.4384 c -0.5837,-5.191 -1.32817,-9.7478 -1.65436,-10.1261 -0.32613,-0.3783 -7.31735,0.2173 -15.53581,1.3238 -8.21852,1.1064 -26.83618,3.9842 -41.37258,6.3951 -14.53642,2.4109 -27.08816,5.0057 -27.89279,5.7661 -0.80966,0.7653 -0.56145,4.308 0.55583,7.934 1.11028,3.6032 2.35125,7.5918 2.75768,8.8636 0.46251,1.4477 2.16743,1.96 4.55962,1.3699 2.10137,-0.5183 12.72709,-2.4817 23.61268,-4.3631 z m 102.12638,-11.3225 c 13.59859,-0.5192 27.98583,-1.3389 31.97161,-1.8217 7.2469,-0.8777 7.2469,-0.8777 7.2469,-10.79 v -9.9124 l -15.77265,0.7033 c -8.67496,0.3868 -26.10093,1.4748 -38.7244,2.4179 -12.62345,0.9431 -23.02029,1.8731 -23.10403,2.0667 -0.0836,0.1934 0.15351,4.8521 0.52753,10.3523 0.67997,10.0003 0.67997,10.0003 6.90516,8.9641 3.42382,-0.5699 17.35124,-1.461 30.94983,-1.9802 z m 152.38897,-1.2115 c 0.5655,-2.1102 1.0386,-6.7141 1.0514,-10.231 0.015,-4.4507 -0.7259,-6.3943 -2.4415,-6.3943 -1.3557,0 -11.9063,-0.7228 -23.4459,-1.6062 -11.5395,-0.8834 -29.6133,-2.0164 -40.1639,-2.5178 l -19.183,-0.9116 v 9.9779 c 0,9.811 0.089,9.9956 5.32862,11.0435 2.93073,0.5862 13.48138,1.161 23.44588,1.2775 9.9644,0.1165 23.4884,0.7631 30.0533,1.4369 6.5648,0.6738 14.724,1.3458 18.1315,1.4934 5.0997,0.2209 6.3772,-0.4103 7.2236,-3.5683 z"
       id="path1" />
  </g>
</svg>
